<svg version="1.2" xmlns="http://www.w3.org/2000/svg" viewBox="0 0 785 254" width="785" height="254">
	<title>caresept_disi</title>
	<style>
		.s0 { fill: #FFFFFF } 
	</style>
	<path id="Caresept_Disi	" class="s0" aria-label="Caresept_Disi	"  d="m94 185q-16.2 0-30.4-6-14-6.2-24.6-17-10.4-11-16.4-25.6-5.8-14.6-5.8-31.6 0-16.8 5.8-31.2 6-14.6 16.4-25.4 10.6-11 24.6-17.2 14-6.2 30.4-6.2 15.4 0 26.4 4 11.2 4 22.4 13.2 1.6 1.2 2.4 2.6 1 1.2 1.2 2.6 0.4 1.2 0.4 3 0 3.8-2.8 6.4-2.6 2.4-6.4 2.8-3.8 0.2-7.4-2.6-7.4-6.4-15.4-9.8-7.8-3.4-20.8-3.4-11.8 0-22.2 4.8-10.4 4.8-18.4 13.2-7.8 8.4-12.2 19.6-4.4 11-4.4 23.6 0 12.8 4.4 24 4.4 11 12.2 19.4 8 8.4 18.4 13.2 10.4 4.6 22.2 4.6 10.2 0 19.2-3.4 9.2-3.6 17.6-9.8 3.6-2.6 7-2.2 3.6 0.2 6 2.8 2.4 2.4 2.4 6.8 0 2-0.8 4-0.8 1.8-2.4 3.4-10.8 8.6-23.2 13-12.2 4.4-25.8 4.4zm97.4-1.2q-14.6 0-26.2-7.2-11.6-7.4-18.4-19.8-6.6-12.6-6.6-28.4 0-15.8 7.2-28.4 7.4-12.6 19.8-19.8 12.6-7.4 28.2-7.4 15.6 0 28 7.4 12.4 7.2 19.6 19.8 7.4 12.6 7.4 28.4h-7.8q0 15.8-6.8 28.4-6.6 12.4-18.2 19.8-11.6 7.2-26.2 7.2zm4-18q10.2 0 18.2-4.8 8-5 12.6-13.4 4.6-8.6 4.6-19.2 0-10.8-4.6-19.2-4.6-8.6-12.6-13.4-8-5-18.2-5-10 0-18.2 5-8 4.8-12.8 13.4-4.6 8.4-4.6 19.2 0 10.6 4.6 19.2 4.8 8.4 12.8 13.4 8.2 4.8 18.2 4.8zm44.8 17.4q-4.4 0-7.4-2.8-2.8-3-2.8-7.4v-30.6l3.8-21.2 16.6 7.2v44.6q0 4.4-3 7.4-2.8 2.8-7.2 2.8zm37-68.6h-10.2q0-12 5.8-21.4 6-9.6 16-15.2 10-5.6 22-5.6 12 0 17.8 4 6 3.8 4.6 9.2-0.6 2.8-2.4 4.4-1.6 1.4-3.8 1.8-2.2 0.4-4.8-0.2-12.8-2.6-23-0.4-10.2 2.2-16.2 8.2-5.8 6-5.8 15.2zm-10 68.4q-4.8 0-7.4-2.4-2.6-2.6-2.6-7.6v-89.4q0-4.8 2.6-7.4 2.6-2.6 7.4-2.6 5 0 7.4 2.6 2.6 2.4 2.6 7.4v89.4q0 4.8-2.6 7.4-2.4 2.6-7.4 2.6zm107 0.8q-16.6 0-29.6-7-12.8-7.2-20.2-19.6-7.2-12.6-7.2-28.8 0-16.4 6.8-28.8 7-12.6 19.2-19.6 12.2-7.2 28-7.2 15.6 0 26.8 7 11.2 6.8 17 19 6 12 6 27.8 0 3.8-2.6 6.4-2.6 2.4-6.6 2.4h-80.6v-16h80l-8.2 5.6q-0.2-10-4-17.8-3.8-8-10.8-12.6-7-4.6-17-4.6-11.4 0-19.6 5-8 5-12.2 13.8-4.2 8.6-4.2 19.6 0 11 5 19.6 5 8.6 13.8 13.6 8.8 5 20.2 5 6.2 0 12.6-2.2 6.6-2.4 10.6-5.4 3-2.2 6.4-2.2 3.6-0.2 6.2 2 3.4 3 3.6 6.6 0.2 3.6-3.2 6.2-6.8 5.4-17 8.8-10 3.4-19.2 3.4zm86.4 0.4q-10.4 0-21.8-3.8-11.4-3.8-19-12.8-1.6-2-1.4-4.2 0.4-2.4 2.6-4 2-1.4 4.2-1 2.4 0.4 3.8 2.2 5.8 6.8 14 9.6 8.4 2.6 18.2 2.6 16.8 0 23.8-6 7-6 7-14 0-7.8-7.6-12.8-7.4-5.2-23-7.4-20-2.8-29.6-10.8-9.6-8-9.6-18.6 0-10 5-16.8 5-7 13.6-10.4 8.8-3.6 20-3.6 13.6 0 23 5 9.4 4.8 15.2 13 1.6 2 1 4.4-0.4 2.2-3 3.6-2 1-4.2 0.6-2.2-0.4-3.8-2.4-5-6.4-12.2-9.6-7-3.4-16.4-3.4-12.6 0-19.6 5.4-7 5.4-7 13 0 5.2 2.8 9.2 3 3.8 9.6 6.6 6.6 2.6 17.6 4.2 15 2 23.6 6.8 8.8 4.8 12.4 11.2 3.8 6.2 3.8 13.4 0 9.4-6 16.4-6 7-15.8 10.8-9.8 3.6-21.2 3.6zm90.8-0.2q-15.8 0-28.2-7-12.2-7.2-19.2-19.8-7-12.6-7-28.8 0-16.4 6.6-28.8 6.6-12.6 18.2-19.8 11.6-7.2 26.6-7.2 14.8 0 26.2 7 11.4 6.8 17.8 19 6.4 12 6.4 27.8 0 2.6-1.6 4.2-1.6 1.4-4.2 1.4h-88v-10.4h91.2l-8.8 6.6q0.4-13-4.4-23-4.8-10-13.8-15.6-8.8-5.8-20.8-5.8-11.4 0-20.4 5.8-8.8 5.6-14 15.6-5 10-5 23.2 0 13 5.4 23 5.4 10 15 15.8 9.6 5.6 22 5.6 7.8 0 15.6-2.6 8-2.8 12.6-7.2 1.6-1.6 3.8-1.6 2.4-0.2 4 1.2 2.2 1.8 2.2 4 0.2 2.2-1.8 4-6.4 5.8-16.8 9.6-10.2 3.8-19.6 3.8zm51.8 45.8q-2.6 0-4.4-1.6-1.6-1.8-1.6-4.4v-96.6q0.4-15.8 7.6-28 7.4-12.4 20-19.6 12.6-7.2 28.2-7.2 16 0 28.6 7.4 12.8 7.2 20 20 7.4 12.6 7.4 28.6 0 15.8-7.4 28.6-7.2 12.6-20 20-12.6 7.2-28.6 7.2-14.4 0-26-6.2-11.4-6.2-17.8-16.6v62.4q0 2.6-1.6 4.4-1.6 1.6-4.4 1.6zm49.8-56.8q12.6 0 22.4-5.8 10-6 15.8-16 5.8-10.2 5.8-22.8 0-12.8-5.8-22.8-5.8-10.2-15.8-16-9.8-6-22.4-6-12.4 0-22.4 6-10 5.8-15.8 16-5.6 10-5.6 22.8 0 12.6 5.6 22.8 5.8 10 15.8 16 10 5.8 22.4 5.8zm107.8 10h-4.6q-11-0.2-19.6-5-8.6-5-13.4-13.6-4.8-8.8-4.8-19.8v-99.6q0-2.8 1.6-4.4 1.8-1.8 4.4-1.8 2.8 0 4.4 1.8 1.8 1.6 1.8 4.4v99.6q0 11.6 7.2 19 7.2 7.2 18.6 7.2h4.4q2.8 0 4.4 1.8 1.8 1.6 1.8 4.4 0 2.6-1.8 4.4-1.6 1.6-4.4 1.6zm-3.8-94.6h-54.2q-2.4 0-4-1.4-1.4-1.6-1.4-4 0-2.4 1.4-3.8 1.6-1.6 4-1.6h54.2q2.4 0 3.8 1.6 1.6 1.4 1.6 3.8 0 2.4-1.6 4-1.4 1.4-3.8 1.4z"/>
</svg>