<?xml version="1.0" encoding="UTF-8"?>
<svg version="1.1" xmlns="http://www.w3.org/2000/svg" width="225" height="225">
<path d="M0 0 C74.25 0 148.5 0 225 0 C225 74.25 225 148.5 225 225 C150.75 225 76.5 225 0 225 C0 150.75 0 76.5 0 0 Z " fill="#FEFEFE" transform="translate(0,0)"/>
<path d="M0 0 C2.62330608 2.62330608 3.30403665 5.52015322 4.3828125 8.9765625 C4.60194305 9.66181 4.82107361 10.3470575 5.04684448 11.05307007 C5.74534286 13.24192282 6.43525711 15.43337436 7.125 17.625 C7.59709338 19.10955411 8.06974289 20.5939315 8.54296875 22.078125 C9.70177529 25.71673084 10.85289054 29.35769045 12 33 C14.64 33.33 17.28 33.66 20 34 C20.23460938 32.78441406 20.46921875 31.56882812 20.7109375 30.31640625 C22.11611101 23.99312547 24.38456475 18.00417857 26.625 11.9375 C27.25535156 10.20983398 27.25535156 10.20983398 27.8984375 8.44726562 C28.92728295 5.62963206 29.96123455 2.81398816 31 0 C31.33 0 31.66 0 32 0 C32 11.22 32 22.44 32 34 C39.66083913 33.91121931 47.32128549 33.82059882 54.98181915 33.71270752 C58.54993464 33.66296802 62.11802173 33.61648009 65.6862793 33.578125 C69.78973221 33.53386245 73.89284411 33.47430697 77.99609375 33.4140625 C79.26206894 33.40251129 80.52804413 33.39096008 81.8323822 33.37905884 C94.17314098 33.25450852 94.17314098 33.25450852 105.375 28.5625 C106.00148437 28.15128906 106.62796875 27.74007812 107.2734375 27.31640625 C109.05449488 26.02732527 109.05449488 26.02732527 110.6015625 24.33984375 C112 23 112 23 114 23 C114.33 22.01 114.66 21.02 115 20 C115.33 19.01 115.66 18.02 116 17 C118.31 17 120.62 17 123 17 C123 54.29 123 91.58 123 130 C48.75 130 -25.5 130 -102 130 C-102 90.73 -102 51.46 -102 11 C-98.37 11 -94.74 11 -91 11 C-90.87882812 12.73765625 -90.75765625 14.4753125 -90.6328125 16.265625 C-90.46383414 18.59377125 -90.29454677 20.92189508 -90.125 23.25 C-90.04636719 24.38953125 -89.96773437 25.5290625 -89.88671875 26.703125 C-88.80939184 41.28847399 -87.49063642 56.5984917 -76.0625 67.125 C-71.39498633 70.70914492 -66.49676223 73.4238241 -60.75 74.75 C-57.07655093 76.41974958 -56.42242766 78.48492856 -54.95703125 82.125 C-54.01873477 84.3406167 -54.01873477 84.3406167 -51 86 C-48.02550392 86.24219315 -48.02550392 86.24219315 -44.8125 86.125 C-43.72582031 86.10695313 -42.63914063 86.08890625 -41.51953125 86.0703125 C-40.27236328 86.03550781 -40.27236328 86.03550781 -39 86 C-37.70622549 83.59727591 -36.89911529 81.5811436 -36.25390625 78.90234375 C-35 76 -35 76 -32.27734375 74.56640625 C-31.17519531 74.23511719 -30.07304688 73.90382813 -28.9375 73.5625 C-19.07572269 70.11577077 -12.86257592 65.19049911 -7.50390625 56.1640625 C-1.17778567 42.85456206 -0.87179126 28.38302391 -0.4375 13.9375 C-0.39420372 12.58136984 -0.35058634 11.22524989 -0.30664062 9.86914062 C-0.2012789 6.57951329 -0.09915048 3.28981941 0 0 Z " fill="#FEFEFE" transform="translate(102,95)"/>
<path d="M0 0 C0 2.64 0 5.28 0 8 C-1.98 8.66 -3.96 9.32 -6 10 C-6.33 12.64 -6.66 15.28 -7 18 C-5.02 18 -3.04 18 -1 18 C-1 20.31 -1 22.62 -1 25 C-3.31 25 -5.62 25 -8 25 C-8.02232766 50.61229547 -8.02232766 50.61229547 2.73828125 72.8671875 C6.00806453 75.79388859 9.49914363 78.84639654 14.03515625 79.125 C14.70417969 79.08375 15.37320313 79.0425 16.0625 79 C20 79 20 79 23 81 C23.33 80.34 23.66 79.68 24 79 C24.66 79 25.32 79 26 79 C25.75341422 70.91198635 25.03899202 65.03566351 21 58 C21 57.01 21 56.02 21 55 C27.27239019 61.944432 29.56160729 69.93434067 31 79 C41.89496206 79.1015998 41.89496206 79.1015998 51 74 C64.61553058 59.34775389 63.29730798 38.27977703 63.125 19.625 C63.11494313 17.71354639 63.1058221 15.80208762 63.09765625 13.890625 C63.0758733 9.26028651 63.04149499 4.63020206 63 0 C68.28 0 73.56 0 79 0 C82.05845557 8.13271139 82.05845557 8.13271139 83.3984375 11.71875 C84.35674072 14.28331946 85.32004259 16.84568829 86.2890625 19.40625 C86.64742188 20.3653125 87.00578125 21.324375 87.375 22.3125 C87.69210938 23.15425781 88.00921875 23.99601562 88.3359375 24.86328125 C89 27 89 27 89 30 C89.66 30 90.32 30 91 30 C91.25652344 28.71996094 91.51304688 27.43992187 91.77734375 26.12109375 C92.9337193 20.91995086 94.67083223 16.03544105 96.5625 11.0625 C97.03719727 9.78922852 97.03719727 9.78922852 97.52148438 8.49023438 C99.8139881 2.37202381 99.8139881 2.37202381 101 0 C113.54 0 126.08 0 139 0 C139 3.3 139 6.6 139 10 C131.74 10 124.48 10 117 10 C117 12.64 117 15.28 117 18 C123.93 18 130.86 18 138 18 C138 21.3 138 24.6 138 28 C131.07 28 124.14 28 117 28 C117 31.3 117 34.6 117 38 C126.57 38 136.14 38 146 38 C146 25.46 146 12.92 146 0 C149.58875 -0.061875 153.1775 -0.12375 156.875 -0.1875 C158.53958252 -0.22846802 158.53958252 -0.22846802 160.23779297 -0.27026367 C169.44203512 -0.34613626 177.71660059 0.86185892 184.59765625 7.38671875 C189.49179372 13.01702175 190.31593915 19.31544999 190.2109375 26.4765625 C189.65359284 33.14405606 185.94709092 38.68468043 181 43 C174.27318823 46.99027723 167.57686515 48.129909 159.81103516 48.11352539 C158.61024323 48.11344986 157.40945129 48.11337433 156.17227173 48.11329651 C154.89081268 48.10813522 153.60935364 48.10297394 152.2890625 48.09765625 C150.95242364 48.09578895 149.61578408 48.09436652 148.27914429 48.09336853 C144.77750731 48.08956795 141.27591244 48.07975891 137.77429199 48.06866455 C134.19458598 48.05839732 130.61487289 48.05380461 127.03515625 48.04882812 C120.02340043 48.03866616 113.01175993 48.01908828 106 48 C105.67 37.44 105.34 26.88 105 16 C101.37 26.56 97.74 37.12 94 48 C91.36 48 88.72 48 86 48 C83.02665168 41.53742274 80.94377132 34.84171566 78.8125 28.0625 C78.44447266 26.90169922 78.07644531 25.74089844 77.69726562 24.54492188 C76.7950261 21.69759455 75.89603549 18.84928454 75 16 C74.98018066 16.74459473 74.96036133 17.48918945 74.93994141 18.25634766 C73.63022771 65.05147738 73.63022771 65.05147738 60 80 C53.71127329 85.70469902 47.2654277 88.35005721 39 90 C38.9071875 91.3303125 38.9071875 91.3303125 38.8125 92.6875 C37.75599629 96.99478434 36.65071496 98.46685084 33 101 C28.12399076 101.92075708 24.31185529 101.76524892 20 99.25 C17.18696603 96.08533679 16 94.26554773 16 90 C14.88625 89.79375 13.7725 89.5875 12.625 89.375 C2.46043713 86.78438575 -4.90157657 80.44357036 -10.43359375 71.74609375 C-17.78635242 57.80421603 -17.50093771 40.36208975 -17 25 C-18.98 25 -20.96 25 -23 25 C-23 22.69 -23 20.38 -23 18 C-21.02 18 -19.04 18 -17 18 C-17.04640625 17.41992188 -17.0928125 16.83984375 -17.140625 16.2421875 C-17.4530953 9.47943746 -15.87807678 6.19786309 -11.3125 1.125 C-7.66574774 -0.64909569 -3.98371984 -0.22982999 0 0 Z " fill="#17ACDD" transform="translate(28,81)"/>
<path d="M0 0 C0.33 0 0.66 0 1 0 C1.05034615 4.01607353 1.08615418 8.03201885 1.10986328 12.04833984 C1.12458051 14.06744873 1.15002367 16.08647052 1.17578125 18.10546875 C1.25733569 34.66101979 -0.1903121 51.3358644 -12 64 C-16.6472653 68.31531778 -21.20124047 68.67080261 -27.29296875 69.21484375 C-30 69 -30 69 -31.74609375 67.890625 C-33.45290626 65.3171133 -34.08503791 62.79408258 -34.875 59.8125 C-36.52232366 54.10433198 -38.58504688 49.83785026 -42 45 C-41.6390625 45.57105469 -41.278125 46.14210937 -40.90625 46.73046875 C-36.79097367 53.92077101 -36.42320014 59.82225976 -37 68 C-37.66 68 -38.32 68 -39 68 C-39.66 69.32 -40.32 70.64 -41 72 C-41 71.01 -41 70.02 -41 69 C-41.6290625 69.05800781 -42.258125 69.11601562 -42.90625 69.17578125 C-50.74371127 69.58890044 -54.91662469 67.6391192 -60.6875 62.49609375 C-72.73536509 49.99643372 -71.28507263 30.02741662 -71 14 C-68.69 14 -66.38 14 -64 14 C-64.020625 12.88625 -64.04125 11.7725 -64.0625 10.625 C-64 7 -64 7 -63 5 C-61.35369672 5.14042877 -59.70795821 5.28749329 -58.0625 5.4375 C-56.68771484 5.55931641 -56.68771484 5.55931641 -55.28515625 5.68359375 C-53 6 -53 6 -52 7 C-51.84344973 8.48638992 -51.74933057 9.97949127 -51.68359375 11.47265625 C-51.64169922 12.37177734 -51.59980469 13.27089844 -51.55664062 14.19726562 C-51.51732422 15.14279297 -51.47800781 16.08832031 -51.4375 17.0625 C-51.39431641 18.01189453 -51.35113281 18.96128906 -51.30664062 19.93945312 C-51.20020724 22.29281353 -51.09818992 24.64628354 -51 27 C-48.69 26.34 -46.38 25.68 -44 25 C-43.67 19.06 -43.34 13.12 -43 7 C-39.7 7 -36.4 7 -33 7 C-33 9.97 -33 12.94 -33 16 C-32.2575 15.2575 -31.515 14.515 -30.75 13.75 C-29.8425 12.8425 -28.935 11.935 -28 11 C-27.278125 10.2575 -26.55625 9.515 -25.8125 8.75 C-22.85705838 5.89647016 -20.44975245 5.61430666 -16.36328125 5.63671875 C-12.58124083 6.21809025 -9.52210086 7.97761789 -6.19921875 9.80859375 C-3.93206158 11.11922485 -3.93206158 11.11922485 -1 12 C-0.67 8.04 -0.34 4.08 0 0 Z " fill="#FBFDFC" transform="translate(91,92)"/>
<path d="M0 0 C10.89 0 21.78 0 33 0 C33 3.3 33 6.6 33 10 C25.74 10 18.48 10 11 10 C11 12.64 11 15.28 11 18 C17.93 18 24.86 18 32 18 C32 21.3 32 24.6 32 28 C25.07 28 18.14 28 11 28 C11 31.3 11 34.6 11 38 C20.57 38 30.14 38 40 38 C40 25.46 40 12.92 40 0 C43.58875 -0.061875 47.1775 -0.12375 50.875 -0.1875 C52.53958252 -0.22846802 52.53958252 -0.22846802 54.23779297 -0.27026367 C63.44203512 -0.34613626 71.71660059 0.86185892 78.59765625 7.38671875 C83.49179372 13.01702175 84.31593915 19.31544999 84.2109375 26.4765625 C83.65359284 33.14405606 79.94709092 38.68468043 75 43 C68.27318823 46.99027723 61.57686515 48.129909 53.81103516 48.11352539 C52.61024323 48.11344986 51.40945129 48.11337433 50.17227173 48.11329651 C48.89081268 48.10813522 47.60935364 48.10297394 46.2890625 48.09765625 C44.95242364 48.09578895 43.61578408 48.09436652 42.27914429 48.09336853 C38.77750731 48.08956795 35.27591244 48.07975891 31.77429199 48.06866455 C28.19458587 48.05839732 24.61487288 48.05385957 21.03515625 48.04882812 C14.02342031 48.03813422 7.01171218 48.02108764 0 48 C-0.16996243 43.25377028 -0.33022168 38.50733844 -0.48217773 33.76049805 C-0.53496505 32.15168835 -0.59022912 30.54295766 -0.64819336 28.93432617 C-0.7319082 26.59831821 -0.80617525 24.26215421 -0.87890625 21.92578125 C-0.90594131 21.22729568 -0.93297638 20.52881012 -0.96083069 19.80915833 C-1.15434969 13.07090532 -0.52715297 6.85298858 0 0 Z " fill="#0698D7" transform="translate(134,81)"/>
<path d="M0 0 C5.28 0 10.56 0 16 0 C19.05845557 8.13271139 19.05845557 8.13271139 20.3984375 11.71875 C21.35674072 14.28331946 22.32004259 16.84568829 23.2890625 19.40625 C23.64742187 20.3653125 24.00578125 21.324375 24.375 22.3125 C24.69210938 23.15425781 25.00921875 23.99601562 25.3359375 24.86328125 C26 27 26 27 26 30 C26.66 30 27.32 30 28 30 C28.25652344 28.71996094 28.51304688 27.43992187 28.77734375 26.12109375 C29.9337193 20.91995086 31.67083223 16.03544105 33.5625 11.0625 C33.87896484 10.21365234 34.19542969 9.36480469 34.52148438 8.49023438 C36.8139881 2.37202381 36.8139881 2.37202381 38 0 C39.65 0 41.3 0 43 0 C44.10760491 11.55165262 40.92325552 20.6255783 37 31.3125 C36.42000553 32.93878761 35.84186659 34.56573822 35.265625 36.19335938 C33.8649939 40.13686516 32.43966816 44.07058656 31 48 C28.36 48 25.72 48 23 48 C20.02665168 41.53742274 17.94377132 34.84171566 15.8125 28.0625 C15.44447266 26.90169922 15.07644531 25.74089844 14.69726562 24.54492188 C13.7950261 21.69759455 12.89603549 18.84928454 12 16 C11.98018066 16.74459473 11.96036133 17.48918945 11.93994141 18.25634766 C10.99510466 52.01468602 10.99510466 52.01468602 7 64 C6.01 63.67 5.02 63.34 4 63 C3.67 61.35 3.34 59.7 3 58 C2.01 58.495 2.01 58.495 1 59 C1 58.01 1 57.02 1 56 C0.34 56 -0.32 56 -1 56 C-1.33 57.32 -1.66 58.64 -2 60 C-3.39617564 57.20764871 -2.41835327 55.43118254 -1.5703125 52.55859375 C0.00348624 45.49805832 0.14138175 38.3565566 0.09765625 31.15234375 C0.0962413 30.25504044 0.09482635 29.35773712 0.09336853 28.4332428 C0.0878251 25.60129286 0.07528358 22.76942555 0.0625 19.9375 C0.05747767 18.00325636 0.05291606 16.06901147 0.04882812 14.13476562 C0.03787429 9.42314583 0.02064953 4.71158687 0 0 Z " fill="#1568AF" transform="translate(91,81)"/>
<path d="M0 0 C6.625 -0.25 6.625 -0.25 10 2 C9.34 2 8.68 2 8 2 C8 4.97 8 7.94 8 11 C14.93 11 21.86 11 29 11 C29 14.3 29 17.6 29 21 C22.07 21 15.14 21 8 21 C8 24.3 8 27.6 8 31 C17.57 31 27.14 31 37 31 C37 33.97 37 36.94 37 40 C24.13 40 11.26 40 -2 40 C-2.04125 34.51375 -2.0825 29.0275 -2.125 23.375 C-2.14320801 21.65458496 -2.16141602 19.93416992 -2.18017578 18.16162109 C-2.18602267 16.78222973 -2.19111776 15.40283488 -2.1953125 14.0234375 C-2.20554443 13.32001221 -2.21577637 12.61658691 -2.22631836 11.8918457 C-2.22784263 7.54308854 -1.59831176 4.04278857 0 0 Z " fill="#118FCD" transform="translate(137,88)"/>
<path d="M0 0 C3.58875 -0.061875 7.1775 -0.12375 10.875 -0.1875 C12.53958252 -0.22846802 12.53958252 -0.22846802 14.23779297 -0.27026367 C23.44203512 -0.34613626 31.71660059 0.86185892 38.59765625 7.38671875 C43.49790603 13.02405345 44.27680517 19.28912807 44.234375 26.44921875 C43.89615597 30.1301692 42.70152558 32.73874263 41 36 C40.67 36 40.34 36 40 36 C40 34.35 40 32.7 40 31 C37.36 31 34.72 31 32 31 C32.03480469 30.19175781 32.06960937 29.38351563 32.10546875 28.55078125 C32.14607422 26.94783203 32.14607422 26.94783203 32.1875 25.3125 C32.22230469 24.25675781 32.25710937 23.20101562 32.29296875 22.11328125 C31.96204099 18.59662222 31.08606359 16.81792838 29 14 C23.45313273 10.05880484 16.57094014 9.87165532 10 9 C10 15.27 10 21.54 10 28 C7.75 23.5 7.75 23.5 7.8046875 19.890625 C7.81435547 18.75947266 7.81435547 18.75947266 7.82421875 17.60546875 C7.84097656 16.82816406 7.85773438 16.05085938 7.875 15.25 C7.88402344 14.45722656 7.89304688 13.66445312 7.90234375 12.84765625 C7.92582988 10.89830719 7.96169863 8.94911425 8 7 C6.35 7 4.7 7 3 7 C2.34 12.28 1.68 17.56 1 23 C0.67 23 0.34 23 0 23 C0 15.41 0 7.82 0 0 Z " fill="#1868AB" transform="translate(174,81)"/>
<path d="M0 0 C0 2.64 0 5.28 0 8 C-1.98 8.66 -3.96 9.32 -6 10 C-6.33 12.64 -6.66 15.28 -7 18 C-5.02 18 -3.04 18 -1 18 C-1 20.31 -1 22.62 -1 25 C-3.31 25 -5.62 25 -8 25 C-7.67 34.24 -7.34 43.48 -7 53 C-7.66 53 -8.32 53 -9 53 C-9.66 53.66 -10.32 54.32 -11 55 C-11.33 53.68 -11.66 52.36 -12 51 C-13.28612676 52.05978933 -13.28612676 52.05978933 -13.09765625 54.50390625 C-13.08605469 55.51324219 -13.07445312 56.52257812 -13.0625 57.5625 C-13.05347656 58.57441406 -13.04445313 59.58632812 -13.03515625 60.62890625 C-13.02355469 61.41136719 -13.01195312 62.19382813 -13 63 C-19.10900778 52.78409623 -17.23969395 36.50530976 -17 25 C-18.98 25 -20.96 25 -23 25 C-23 22.69 -23 20.38 -23 18 C-21.02 18 -19.04 18 -17 18 C-17.04640625 17.41992188 -17.0928125 16.83984375 -17.140625 16.2421875 C-17.4530953 9.47943746 -15.87807678 6.19786309 -11.3125 1.125 C-7.66574774 -0.64909569 -3.98371984 -0.22982999 0 0 Z " fill="#1662AA" transform="translate(28,81)"/>
<path d="M0 0 C0.33 0 0.66 0 1 0 C1 12.54 1 25.08 1 38 C-8.57 38 -18.14 38 -28 38 C-28 34.7 -28 31.4 -28 28 C-21.07 28 -14.14 28 -7 28 C-7 24.7 -7 21.4 -7 18 C-13.93 18 -20.86 18 -28 18 C-28 15.36 -28 12.72 -28 10 C-27.01604248 9.970271 -27.01604248 9.970271 -26.01220703 9.93994141 C-23.04938931 9.84487493 -20.08729468 9.73512248 -17.125 9.625 C-15.57619141 9.57859375 -15.57619141 9.57859375 -13.99609375 9.53125 C-12.51689453 9.47324219 -12.51689453 9.47324219 -11.0078125 9.4140625 C-10.09660645 9.3826416 -9.18540039 9.3512207 -8.24658203 9.31884766 C-5.80068814 9.20117489 -5.80068814 9.20117489 -4 7 C-3.01 7 -2.02 7 -1 7 C-0.67 4.69 -0.34 2.38 0 0 Z " fill="#F5FBF9" transform="translate(173,81)"/>
<path d="M0 0 C3.97515964 1.69528867 5.55846952 2.91507356 7.8125 6.71875 C8.8125 10.34375 8.8125 10.34375 8.8125 16.34375 C2.2125 16.34375 -4.3875 16.34375 -11.1875 16.34375 C-10.5275 17.66375 -9.8675 18.98375 -9.1875 20.34375 C-6.44550883 21.02924779 -4.00758529 21.34375 -1.1875 21.34375 C-1.1875 20.68375 -1.1875 20.02375 -1.1875 19.34375 C2.18712715 19.89098683 3.89485 20.39865 6.8125 22.34375 C6.8125 23.00375 6.8125 23.66375 6.8125 24.34375 C2.42974871 28.25692079 -2.15846978 28.75183446 -7.8671875 28.6953125 C-11.73257073 28.10964837 -14.52360442 26.14785061 -17.1875 23.34375 C-20.1316467 18.71582709 -19.80909891 13.63885182 -19.1875 8.34375 C-15.23628855 0.14864477 -8.65663504 -2.59699051 0 0 Z " fill="#41BDE3" transform="translate(79.1875,98.65625)"/>
<path d="M0 0 C8.60204027 0 13.62804233 0.05850501 19.9375 5.5625 C22.91224362 9.07810609 23.30854309 11.20617359 23.19921875 15.83984375 C22.85804394 19.53924908 21.99487693 21.85655756 20 25 C13.62908404 29.64460324 7.97865194 29 0 29 C0 19.43 0 9.86 0 0 Z " fill="#FAFDFC" transform="translate(184,90)"/>
<path d="M0 0 C2.97 0 5.94 0 9 0 C9.33 6.6 9.66 13.2 10 20 C12.31 19.34 14.62 18.68 17 18 C17.33 12.06 17.66 6.12 18 0 C20.97 0 23.94 0 27 0 C27 8.91 27 17.82 27 27 C24.36 27 21.72 27 19 27 C18.67 26.34 18.34 25.68 18 25 C17.505 25.495 17.01 25.99 16.5 26.5 C13.05369472 28.56778317 9.86658424 28.84389736 6 28 C3.30894802 25.82425584 1.54467072 24.08934144 0 21 C-0.08400529 19.40552536 -0.10727467 17.80759455 -0.09765625 16.2109375 C-0.09443359 15.26992187 -0.09121094 14.32890625 -0.08789062 13.359375 C-0.07951172 12.37453125 -0.07113281 11.3896875 -0.0625 10.375 C-0.05798828 9.38242188 -0.05347656 8.38984375 -0.04882812 7.3671875 C-0.03702145 4.9113984 -0.020554 2.45572896 0 0 Z " fill="#23B7E7" transform="translate(30,99)"/>
<path d="M0 0 C7.46643051 6.42942627 9.40303555 14.55129367 11 24 C14.96 24 18.92 24 23 24 C19.77208445 26.1519437 18.71599191 26.20086443 15 26 C15.515625 26.825 16.03125 27.65 16.5625 28.5 C18.46082859 33.12201744 18.17081766 35.16062035 17 40 C15.31926233 42.62195076 14.11491283 43.66412668 11.1328125 44.5625 C7.58473853 45.20517 5.50214195 45.20740646 2.125 43.8125 C-1.31530921 40.87811862 -1.90223786 39.07538355 -2.3125 34.5625 C-1.98447096 30.82296894 -1.18092532 28.99877231 1 26 C-1.31 26 -3.62 26 -6 26 C-4.3125 24.875 -4.3125 24.875 -2 24 C0.75 24.875 0.75 24.875 3 26 C3.33 25.34 3.66 24.68 4 24 C4.66 24 5.32 24 6 24 C5.75456102 15.9496015 5.12873533 9.96724087 1 3 C0.67 2.01 0.34 1.02 0 0 Z " fill="#E8F1F3" transform="translate(48,136)"/>
<path d="M0 0 C10.89 0 21.78 0 33 0 C33 3.3 33 6.6 33 10 C25.74 10 18.48 10 11 10 C10.67 9.34 10.34 8.68 10 8 C7.69 8 5.38 8 3 8 C1.97007766 12.29928436 1.78588962 16.52655879 1.68359375 20.92578125 C1.65561707 21.92079651 1.65561707 21.92079651 1.6270752 22.93591309 C1.55919465 25.39465042 1.49878091 27.85358933 1.4375 30.3125 C1.293125 35.819375 1.14875 41.32625 1 47 C20.47 47 39.94 47 60 47 C60 47.33 60 47.66 60 48 C40.2 48 20.4 48 0 48 C-0.185625 42.493125 -0.37125 36.98625 -0.5625 31.3125 C-0.62381104 29.60360596 -0.68512207 27.89471191 -0.74829102 26.1340332 C-0.79238619 24.73129994 -0.83595666 23.32855005 -0.87890625 21.92578125 C-0.9189679 20.89197327 -0.9189679 20.89197327 -0.95983887 19.83728027 C-1.15420898 13.0895321 -0.52785609 6.86212923 0 0 Z " fill="#41A9D2" transform="translate(134,81)"/>
<path d="M0 0 C2.379207 3.56881049 2.19734919 4.93033642 2.046875 9.14453125 C2.00433594 10.38009766 1.96179688 11.61566406 1.91796875 12.88867188 C1.86253906 14.18353516 1.80710937 15.47839844 1.75 16.8125 C1.71003906 18.06482422 1.67007813 19.31714844 1.62890625 20.60742188 C1.21306247 31.50365283 0.46894763 42.59315712 -3 53 C-3.99 52.67 -4.98 52.34 -6 52 C-6.33 50.35 -6.66 48.7 -7 47 C-7.99 47.495 -7.99 47.495 -9 48 C-9 47.01 -9 46.02 -9 45 C-9.66 45 -10.32 45 -11 45 C-11.33 46.32 -11.66 47.64 -12 49 C-13.42602378 46.14795243 -12.34717147 44.25563144 -11.546875 41.30859375 C-10.66417521 37.58233966 -10.33503685 33.80883994 -10 30 C-9.67 30 -9.34 30 -9 30 C-8.87882812 28.71222656 -8.75765625 27.42445312 -8.6328125 26.09765625 C-8.46403135 24.41922152 -8.29473387 22.74083865 -8.125 21.0625 C-8.00705078 19.78729492 -8.00705078 19.78729492 -7.88671875 18.48632812 C-7.80292969 17.67744141 -7.71914062 16.86855469 -7.6328125 16.03515625 C-7.55949707 15.2862915 -7.48618164 14.53742676 -7.41064453 13.76586914 C-7.27513184 13.18313232 -7.13961914 12.60039551 -7 12 C-6.34 11.67 -5.68 11.34 -5 11 C-4.59270772 8.67843403 -4.25561323 6.3431213 -4 4 C-2 7 -2 7 -1 10 C-0.67 6.7 -0.34 3.4 0 0 Z " fill="#0C8BCC" transform="translate(101,92)"/>
<path d="M0 0 C1.20970459 0.00523682 2.41940918 0.01047363 3.66577148 0.01586914 C4.97094727 0.0190918 6.27612305 0.02231445 7.62084961 0.02563477 C9.00952213 0.03399138 10.39819401 0.04245634 11.78686523 0.05102539 C13.17944179 0.05603873 14.57202005 0.06060193 15.96459961 0.06469727 C19.38456394 0.07653105 22.80444367 0.09301659 26.22436523 0.11352539 C26.22436523 3.08352539 26.22436523 6.05352539 26.22436523 9.11352539 C13.35436523 9.11352539 0.48436523 9.11352539 -12.77563477 9.11352539 C-12.77563477 6.47352539 -12.77563477 3.83352539 -12.77563477 1.11352539 C-12.44563477 1.11352539 -12.11563477 1.11352539 -11.77563477 1.11352539 C-11.77563477 3.09352539 -11.77563477 5.07352539 -11.77563477 7.11352539 C-9.13563477 6.78352539 -6.49563477 6.45352539 -3.77563477 6.11352539 C-3.79625977 5.30915039 -3.81688477 4.50477539 -3.83813477 3.67602539 C-3.75073427 0.09260503 -3.59925329 0.14721196 0 0 Z " fill="#1360AA" transform="translate(147.775634765625,118.886474609375)"/>
<path d="M0 0 C5.445 -0.061875 5.445 -0.061875 11 -0.125 C12.69189453 -0.15231201 12.69189453 -0.15231201 14.41796875 -0.18017578 C20.31469334 -0.212404 25.3545949 0.27652296 31 2 C30.67 2.66 30.34 3.32 30 4 C26.9375 4.625 26.9375 4.625 24 5 C24.66 5.66 25.32 6.32 26 7 C25.67 8.32 25.34 9.64 25 11 C17.575 10.01 17.575 10.01 10 9 C10 15.27 10 21.54 10 28 C7.75 23.5 7.75 23.5 7.8046875 19.890625 C7.81435547 18.75947266 7.81435547 18.75947266 7.82421875 17.60546875 C7.84097656 16.82816406 7.85773438 16.05085938 7.875 15.25 C7.88402344 14.45722656 7.89304688 13.66445312 7.90234375 12.84765625 C7.92582988 10.89830719 7.96169863 8.94911425 8 7 C6.35 7 4.7 7 3 7 C2.34 12.28 1.68 17.56 1 23 C0.67 23 0.34 23 0 23 C0 15.41 0 7.82 0 0 Z " fill="#165EA2" transform="translate(174,81)"/>
<path d="M0 0 C2.64 0 5.28 0 8 0 C8.33 6.93 8.66 13.86 9 21 C10.65 21.33 12.3 21.66 14 22 C13.34 22.33 12.68 22.66 12 23 C12 23.66 12 24.32 12 25 C12.66 25.33 13.32 25.66 14 26 C14 26.66 14 27.32 14 28 C6.75898264 28.61364554 6.75898264 28.61364554 3.0625 25.625 C0.31424298 22.12721834 -0.12391741 20.57029036 -0.09765625 16.2109375 C-0.09443359 15.26992187 -0.09121094 14.32890625 -0.08789062 13.359375 C-0.07951172 12.37453125 -0.07113281 11.3896875 -0.0625 10.375 C-0.05798828 9.38242188 -0.05347656 8.38984375 -0.04882812 7.3671875 C-0.03702145 4.9113984 -0.020554 2.45572896 0 0 Z " fill="#05B0EB" transform="translate(30,99)"/>
<path d="M0 0 C3.375 0.25 3.375 0.25 7 1 C9.12308856 4.02015607 9.29328134 6.79844019 9.4140625 10.421875 C9.45273437 11.44667969 9.49140625 12.47148438 9.53125 13.52734375 C9.5621875 14.59082031 9.593125 15.65429688 9.625 16.75 C9.66367187 17.82894531 9.70234375 18.90789062 9.7421875 20.01953125 C9.83634631 22.67951775 9.92197387 25.3394994 10 28 C9.34 28 8.68 28 8 28 C7.34 28.66 6.68 29.32 6 30 C5.67 28.68 5.34 27.36 5 26 C3.71387324 27.05978933 3.71387324 27.05978933 3.90234375 29.50390625 C3.91394531 30.51324219 3.92554688 31.52257812 3.9375 32.5625 C3.94652344 33.57441406 3.95554687 34.58632812 3.96484375 35.62890625 C3.97644531 36.41136719 3.98804688 37.19382813 4 38 C-2.10900778 27.78409623 -0.23969395 11.50530976 0 0 Z " fill="#2687BE" transform="translate(11,106)"/>
<path d="M0 0 C1.65 0 3.3 0 5 0 C6.01506606 10.97775152 3.26234916 19.11794644 -1 29 C-1.33 28.34 -1.66 27.68 -2 27 C-4.02463255 26.34786708 -4.02463255 26.34786708 -6 26 C-6 25.01 -6 24.02 -6 23 C-6.99 23.99 -7.98 24.98 -9 26 C-6.85638413 16.95544533 -3.56670448 8.55316512 0 0 Z " fill="#245C9E" transform="translate(129,81)"/>
<path d="M0 0 C0.33 0 0.66 0 1 0 C1 9.9 1 19.8 1 30 C0.34 29.67 -0.32 29.34 -1 29 C-1.226875 29.804375 -1.45375 30.60875 -1.6875 31.4375 C-2.3371875 32.7059375 -2.3371875 32.7059375 -3 34 C-5.625 34.8125 -5.625 34.8125 -8 35 C-8 34.01 -8 33.02 -8 32 C-7.01 31.67 -6.02 31.34 -5 31 C-7.52788007 28.20127563 -9.20411134 26.54226981 -13 26 C-13 26.66 -13 27.32 -13 28 C-18.3559322 29.33898305 -18.3559322 29.33898305 -21.375 27.75 C-23 26 -23 26 -23 23 C-16.4 23 -9.8 23 -3 23 C-4.29529335 16.94329954 -4.29529335 16.94329954 -6 11 C-3.525 11.495 -3.525 11.495 -1 12 C-0.67 8.04 -0.34 4.08 0 0 Z " fill="#E3F2F5" transform="translate(91,92)"/>
<path d="M0 0 C7.75686627 6.67952373 9.48058439 15.1853434 11.38671875 24.9609375 C11.94085457 28.02642742 11.94085457 28.02642742 13 31 C13.1875 34.5625 13.1875 34.5625 13 38 C11 40 11 40 7.5 40.3125 C6.345 40.209375 5.19 40.10625 4 40 C2 37 2 37 2.25 33.625 C3 30 3 30 4.0234375 27.69921875 C6.14465507 21.83617338 6.10864392 14.32091527 4.13671875 8.4140625 C3.1874355 6.55691926 2.10241122 4.77053924 1 3 C0.67 2.01 0.34 1.02 0 0 Z " fill="#222222" transform="translate(48,136)"/>
<path d="M0 0 C3.3 0.33 6.6 0.66 10 1 C10 1.33 10 1.66 10 2 C7.36 2 4.72 2 2 2 C2.08140775 5.37594805 2.19420201 8.75015913 2.3125 12.125 C2.33505859 13.07632813 2.35761719 14.02765625 2.38085938 15.0078125 C2.58663484 20.39538826 3.05429283 24.30898107 6 29 C4.68 29 3.36 29 2 29 C2 28.34 2 27.68 2 27 C1.34 27 0.68 27 0 27 C-0.66 26.34 -1.32 25.68 -2 25 C-2.66 25.33 -3.32 25.66 -4 26 C-5.28317892 22.15046324 -5.06643637 19.05261865 -5 15 C-4.34 15 -3.68 15 -3 15 C-3.26676204 13.01508358 -3.26676204 13.01508358 -4 11 C-4.99 10.67 -5.98 10.34 -7 10 C-7 16.27 -7 22.54 -7 29 C-7.33 29 -7.66 29 -8 29 C-8 22.4 -8 15.8 -8 9 C-5.69 9 -3.38 9 -1 9 C-1.020625 7.88625 -1.04125 6.7725 -1.0625 5.625 C-1 2 -1 2 0 0 Z " fill="#F8FCFA" transform="translate(28,97)"/>
<path d="M0 0 C6.27 0 12.54 0 19 0 C19 2.97 19 5.94 19 9 C12.4 9 5.8 9 -1 9 C-1 12.3 -1 15.6 -1 19 C-1.33 19 -1.66 19 -2 19 C-2 15.37 -2 11.74 -2 8 C-1.01 7.67 -0.02 7.34 1 7 C0.01 6.67 -0.98 6.34 -2 6 C-0.68 4.68 0.64 3.36 2 2 C1.34 1.34 0.68 0.68 0 0 Z " fill="#0B7AB8" transform="translate(146,100)"/>
<path d="M0 0 C0.66 1.32 1.32 2.64 2 4 C2.66 2.68 3.32 1.36 4 0 C6.07310585 3.10965878 6.67246462 5.26802515 7.5 8.875 C8.39392171 12.75189958 9.433199 16.3396287 11 20 C10.01 19.67 9.02 19.34 8 19 C7.67 19.66 7.34 20.32 7 21 C6.34 21 5.68 21 5 21 C5 22.65 5 24.3 5 26 C0.71694965 22.53276877 -0.70201747 18.0107764 -1.48046875 12.7578125 C-2.35385178 3.53077767 -2.35385178 3.53077767 0 0 Z " fill="#0B91D0" transform="translate(16,130)"/>
<path d="M0 0 C3 1 3 1 4.6875 4.1875 C6.01535157 7.5347925 6.26451861 10.38491227 6 14 C5.67 13.34 5.34 12.68 5 12 C4.01 12.495 4.01 12.495 3 13 C0.9765625 13.16796875 0.9765625 13.16796875 -1.375 13.1875 C-2.14585938 13.20167969 -2.91671875 13.21585938 -3.7109375 13.23046875 C-6.21834888 12.97801607 -7.83261902 12.25193467 -10 11 C-9.67 10.67 -9.34 10.34 -9 10 C-10.65 9.67 -12.3 9.34 -14 9 C-13.42655063 6.13275314 -13.1385485 5.1385485 -11 3 C-8.6171875 3.0234375 -8.6171875 3.0234375 -5.875 3.375 C-4.96492188 3.48585938 -4.05484375 3.59671875 -3.1171875 3.7109375 C-2.06917969 3.85402344 -2.06917969 3.85402344 -1 4 C-0.67 2.68 -0.34 1.36 0 0 Z " fill="#65C6E8" transform="translate(82,101)"/>
<path d="M0 0 C2.875 2.625 2.875 2.625 4.875 5.625 C4.875 6.615 4.875 7.605 4.875 8.625 C2.565 8.955 0.255 9.285 -2.125 9.625 C-2.455 10.615 -2.785 11.605 -3.125 12.625 C-3.785 12.625 -4.445 12.625 -5.125 12.625 C-6.13851664 10.96651823 -7.13620795 9.29834039 -8.125 7.625 C-9.42079647 6.25515802 -10.74492749 4.9098951 -12.125 3.625 C-11.795 2.965 -11.465 2.305 -11.125 1.625 C-12.445 1.295 -13.765 0.965 -15.125 0.625 C-14.465 0.295 -13.805 -0.035 -13.125 -0.375 C-14.115 -1.035 -15.105 -1.695 -16.125 -2.375 C-14.70956585 -2.57158808 -13.29255969 -2.75687546 -11.875 -2.9375 C-11.08609375 -3.04191406 -10.2971875 -3.14632812 -9.484375 -3.25390625 C-5.21912198 -3.47281824 -3.44073345 -2.61495742 0 0 Z " fill="#1E5CA3" transform="translate(211.125,87.375)"/>
<path d="M0 0 C4 0 4 0 5.75 1.5625 C7.47395014 4.92420278 7.39321502 7.26445727 7 11 C5.6875 13.9375 5.6875 13.9375 4 16 C3.01 16 2.02 16 1 16 C0.34 16.66 -0.32 17.32 -1 18 C-1.99 18 -2.98 18 -4 18 C-4.33 17.34 -4.66 16.68 -5 16 C-5.99 16.66 -6.98 17.32 -8 18 C-8.66 17.34 -9.32 16.68 -10 16 C-9.236875 15.13375 -8.47375 14.2675 -7.6875 13.375 C-5.24501523 10.44953802 -3.58748662 7.47735165 -2 4 C-1.33333333 2.66666667 -0.66666667 1.33333333 0 0 Z " fill="#0698D6" transform="translate(90,137)"/>
<path d="M0 0 C1.21236328 0.02707031 1.21236328 0.02707031 2.44921875 0.0546875 C3.37154297 0.08949219 3.37154297 0.08949219 4.3125 0.125 C4.3125 2.765 4.3125 5.405 4.3125 8.125 C3.384375 8.3725 2.45625 8.62 1.5 8.875 C-1.85208325 10.18954245 -2.8752803 11.10463384 -4.6875 14.125 C-5.0175 13.795 -5.3475 13.465 -5.6875 13.125 C-6.0175 13.785 -6.3475 14.445 -6.6875 15.125 C-8.35416667 15.125 -10.02083333 15.125 -11.6875 15.125 C-12.17720976 7.901781 -12.17720976 7.901781 -9.875 4.25 C-6.53088717 1.00143326 -4.59477793 -0.13318197 0 0 Z " fill="#1C4F96" transform="translate(23.6875,80.875)"/>
<path d="M0 0 C0.33 0.66 0.66 1.32 1 2 C2.98 2 4.96 2 7 2 C7.4375 5.125 7.4375 5.125 7 9 C4.97871868 11.44569735 2.6977203 13.33376099 0 15 C-0.66 15 -1.32 15 -2 15 C-2 13.68 -2 12.36 -2 11 C-3.65 11.33 -5.3 11.66 -7 12 C-7 11.34 -7 10.68 -7 10 C-11.62 10 -16.24 10 -21 10 C-21 9.67 -21 9.34 -21 9 C-20.20335937 8.87882812 -19.40671875 8.75765625 -18.5859375 8.6328125 C-10.59973334 7.52253575 -10.59973334 7.52253575 -3 5 C-2.67 4.01 -2.34 3.02 -2 2 C-1.34 2 -0.68 2 0 2 C0 1.34 0 0.68 0 0 Z " fill="#1685C0" transform="translate(207,110)"/>
<path d="M0 0 C1.60717771 2.41076656 2.61542515 4.28099245 3.625 6.9375 C3.88539062 7.60652344 4.14578125 8.27554688 4.4140625 8.96484375 C5 11 5 11 5 15 C4.01 15.33 3.02 15.66 2 16 C1.38932856 17.85744207 1.38932856 17.85744207 1 20 C0.35404443 21.34348935 -0.31016328 22.67850557 -1 24 C-2.00935129 21.1071271 -3.00768744 18.21121485 -4 15.3125 C-4.28617187 14.49587891 -4.57234375 13.67925781 -4.8671875 12.83789062 C-7.42266949 5.32355667 -7.42266949 5.32355667 -7 1 C-4.69 1.33 -2.38 1.66 0 2 C0 1.34 0 0.68 0 0 Z " fill="#1860A3" transform="translate(111,94)"/>
<path d="M0 0 C2.4168912 3.62533679 2.18269789 5.09907846 2.01171875 9.390625 C1.94114258 11.29134766 1.94114258 11.29134766 1.86914062 13.23046875 C1.83925049 13.89095215 1.80936035 14.55143555 1.77856445 15.23193359 C1.68847565 17.22837886 1.61465573 19.22553661 1.54101562 21.22265625 C1.30091533 27.22212439 0.92128322 33.06105571 0 39 C-0.33 39 -0.66 39 -1 39 C-1 32.73 -1 26.46 -1 20 C-1.66 20 -2.32 20 -3 20 C-3.33 22.64 -3.66 25.28 -4 28 C-4.99 28 -5.98 28 -7 28 C-7 22.72 -7 17.44 -7 12 C-6.34 11.67 -5.68 11.34 -5 11 C-4.59270772 8.67843403 -4.25561323 6.3431213 -4 4 C-2 7 -2 7 -1 10 C-0.67 6.7 -0.34 3.4 0 0 Z " fill="#2677B4" transform="translate(101,92)"/>
<path d="M0 0 C5.28 0 10.56 0 16 0 C16.89840477 4.49202386 16.90338924 6.68380697 16 11 C15.34 11 14.68 11 14 11 C14 9.68 14 8.36 14 7 C10.7 6.67 7.4 6.34 4 6 C3.16759431 9.77030815 2.73352045 13.46423414 2.4375 17.3125 C2.31181641 18.91544922 2.31181641 18.91544922 2.18359375 20.55078125 C2.12300781 21.35902344 2.06242187 22.16726562 2 23 C1.67 23 1.34 23 1 23 C0.24739961 15.29928525 -0.10181226 7.73773151 0 0 Z " fill="#13488D" transform="translate(91,81)"/>
<path d="M0 0 C3.37462715 0.54723683 5.08235 1.0549 8 3 C8 3.66 8 4.32 8 5 C3.61404035 8.9160354 -0.96295667 9.3916368 -6.671875 9.36328125 C-10.70409424 8.73409268 -12.96383357 6.64857072 -16 4 C-16 3.67 -16 3.34 -16 3 C-14.02 3 -12.04 3 -10 3 C-10 4.32 -10 5.64 -10 7 C-9.01 7 -8.02 7 -7 7 C-7 6.01 -7 5.02 -7 4 C-7.66 3.67 -8.32 3.34 -9 3 C-4.545 2.505 -4.545 2.505 0 2 C0 1.34 0 0.68 0 0 Z " fill="#4BC0E9" transform="translate(78,118)"/>
<path d="M0 0 C0.33 0 0.66 0 1 0 C1 2.64 1 5.28 1 8 C1.66 8 2.32 8 3 8 C3 13.94 3 19.88 3 26 C0 27 0 27 -4 26 C-4 20.06 -4 14.12 -4 8 C-3.67 8 -3.34 8 -3 8 C-3 10.64 -3 13.28 -3 16 C-2.01 16 -1.02 16 0 16 C0 10.72 0 5.44 0 0 Z " fill="#0E7AC2" transform="translate(97,104)"/>
<path d="M0 0 C0.99 0 1.98 0 3 0 C3.33 0.66 3.66 1.32 4 2 C5.32 1.34 6.64 0.68 8 0 C7.67 1.32 7.34 2.64 7 4 C6.360625 4.103125 5.72125 4.20625 5.0625 4.3125 C4.381875 4.539375 3.70125 4.76625 3 5 C2.67 5.99 2.34 6.98 2 8 C1.34 8 0.68 8 0 8 C0 8.66 0 9.32 0 10 C-3.07322544 10.91058531 -5.80097361 11.08886184 -9 11 C-8.67 10.01 -8.34 9.02 -8 8 C-7.34 8 -6.68 8 -6 8 C-6 7.34 -6 6.68 -6 6 C-7.98 6.99 -9.96 7.98 -12 9 C-12 8.34 -12 7.68 -12 7 C-10.609375 5.74609375 -10.609375 5.74609375 -8.75 4.4375 C-8.14671875 4.00308594 -7.5434375 3.56867188 -6.921875 3.12109375 C-4.94126642 1.96573874 -3.22271986 1.49868715 -1 1 C-0.67 0.67 -0.34 0.34 0 0 Z " fill="#0BA6E0" transform="translate(85,152)"/>
<path d="M0 0 C3.3477045 3.3477045 4.21430469 7.94655717 5.6875 12.375 C6.02072266 13.3340625 6.35394531 14.293125 6.69726562 15.28125 C7.00728516 16.20679687 7.31730469 17.13234375 7.63671875 18.0859375 C8.06537231 19.3551001 8.06537231 19.3551001 8.50268555 20.64990234 C9.03606181 23.17041286 8.83294762 24.59046359 8 27 C8 26.34 8 25.68 8 25 C7.34 25 6.68 25 6 25 C6 24.34 6 23.68 6 23 C5.01 23.33 4.02 23.66 3 24 C0.19487601 18.4560148 -0.3935213 14.22729121 -0.1875 8.0625 C-0.17396484 7.28326172 -0.16042969 6.50402344 -0.14648438 5.70117188 C-0.11150224 3.80047596 -0.05770959 1.90014166 0 0 Z " fill="#EBF4F5" transform="translate(102,95)"/>
<path d="M0 0 C2.97 0 5.94 0 9 0 C9 8.91 9 17.82 9 27 C8.67 27 8.34 27 8 27 C7.67 22.38 7.34 17.76 7 13 C5.68 13 4.36 13 3 13 C3 9.37 3 5.74 3 2 C2.34 1.67 1.68 1.34 1 1 C1 5.95 1 10.9 1 16 C0.67 16 0.34 16 0 16 C0 10.72 0 5.44 0 0 Z " fill="#40BAE1" transform="translate(48,99)"/>
<path d="M0 0 C0.33 0.66 0.66 1.32 1 2 C4.96 2 8.92 2 13 2 C9.77208445 4.1519437 8.71599191 4.20086443 5 4 C5.515625 4.825 6.03125 5.65 6.5625 6.5 C8.45399767 11.10538563 8.18338973 13.18754844 7 18 C4.9375 20 4.9375 20 3 21 C3 20.34 3 19.68 3 19 C0.69 19 -1.62 19 -4 19 C-4 18.67 -4 18.34 -4 18 C-2.02 17.34 -0.04 16.68 2 16 C2.2396943 10.36718401 1.38529821 5.45461169 0 0 Z " fill="#D3E6E7" transform="translate(58,158)"/>
<path d="M0 0 C7.59 0 15.18 0 23 0 C23 2.97 23 5.94 23 9 C13.1 9 3.2 9 -7 9 C-7 8.67 -7 8.34 -7 8 C0.92 8 8.84 8 17 8 C17 5.69 17 3.38 17 1 C11.39 1 5.78 1 0 1 C0 0.67 0 0.34 0 0 Z " fill="#0A519D" transform="translate(151,119)"/>
<path d="M0 0 C0.66 0 1.32 0 2 0 C2 1.98 2 3.96 2 6 C2.99 6 3.98 6 5 6 C4.46148032 11.27749285 3.22656164 15.25645564 1 20 C0.67 19.34 0.34 18.68 0 18 C-2.02463255 17.34786708 -2.02463255 17.34786708 -4 17 C-3.855625 16.505 -3.71125 16.01 -3.5625 15.5 C-2.90222209 12.78028728 -2.90222209 12.78028728 -2.5625 9.0625 C-2.18077278 5.76856354 -1.41769853 3.02442354 0 0 Z " fill="#1962A8" transform="translate(127,90)"/>
<path d="M0 0 C0.66 0 1.32 0 2 0 C2 0.66 2 1.32 2 2 C2.66 2 3.32 2 4 2 C4.33 1.34 4.66 0.68 5 0 C5.33 1.32 5.66 2.64 6 4 C6.66 4 7.32 4 8 4 C8 6.64 8 9.28 8 12 C6 10 6 10 5 7 C4.34 8.65 3.68 10.3 3 12 C2.34 12 1.68 12 1 12 C0.67 18.93 0.34 25.86 0 33 C-0.33 33 -0.66 33 -1 33 C-1.20638953 10.40510967 -1.20638953 10.40510967 0 0 Z " fill="#1161A8" transform="translate(93,92)"/>
<path d="M0 0 C2.97 0 5.94 0 9 0 C9 0.33 9 0.66 9 1 C6.36 1 3.72 1 1 1 C1 9.91 1 18.82 1 28 C2.98 27.34 4.96 26.68 7 26 C7.33 25.01 7.66 24.02 8 23 C11.96 22.505 11.96 22.505 16 22 C16 22.99 16 23.98 16 25 C15.34 25 14.68 25 14 25 C14 25.99 14 26.98 14 28 C11 29 11 29 0 29 C0 19.43 0 9.86 0 0 Z " fill="#D4E7EB" transform="translate(184,90)"/>
<path d="M0 0 C1.4800841 0.11362262 2.95910074 0.24122908 4.4375 0.375 C5.26121094 0.44460937 6.08492187 0.51421875 6.93359375 0.5859375 C7.95646484 0.79089844 7.95646484 0.79089844 9 1 C9.33 1.66 9.66 2.32 10 3 C10.99 3.66 11.98 4.32 13 5 C11.68 5.33 10.36 5.66 9 6 C9 12.6 9 19.2 9 26 C6.75 21.5 6.75 21.5 6.8046875 17.890625 C6.81435547 16.75947266 6.81435547 16.75947266 6.82421875 15.60546875 C6.84097656 14.82816406 6.85773438 14.05085938 6.875 13.25 C6.88402344 12.45722656 6.89304688 11.66445312 6.90234375 10.84765625 C6.92582988 8.89830719 6.96169863 6.94911425 7 5 C5.35 5 3.7 5 2 5 C1.34 10.28 0.68 15.56 0 21 C-0.33 21 -0.66 21 -1 21 C-1.02710123 18.4374282 -1.04688771 15.87514635 -1.0625 13.3125 C-1.07087891 12.59126953 -1.07925781 11.87003906 -1.08789062 11.12695312 C-1.10543632 7.28444618 -0.93524221 3.73360474 0 0 Z " fill="#0A76BA" transform="translate(175,83)"/>
<path d="M0 0 C0.99 0 1.98 0 3 0 C4.15957207 3.47871621 3.77456651 4.34219645 2.5625 7.6875 C2.27503906 8.49574219 1.98757812 9.30398437 1.69140625 10.13671875 C1.46324219 10.75160156 1.23507813 11.36648437 1 12 C-1.64 12 -4.28 12 -7 12 C-7.66 10.02 -8.32 8.04 -9 6 C-4.375 3 -4.375 3 -1 3 C-0.67 2.01 -0.34 1.02 0 0 Z " fill="#0F7ABD" transform="translate(121,117)"/>
<path d="M0 0 C1.65 0 3.3 0 5 0 C7.25998595 3.59462331 7.20868087 6.56595675 7.125 10.75 C7.10695313 11.92046875 7.08890625 13.0909375 7.0703125 14.296875 C7.03550781 15.63492188 7.03550781 15.63492188 7 17 C6.01 16.67 5.02 16.34 4 16 C3.34 16.33 2.68 16.66 2 17 C2 15.68 2 14.36 2 13 C1.34 13 0.68 13 0 13 C0 8.71 0 4.42 0 0 Z " fill="#106FB7" transform="translate(13,107)"/>
<path d="M0 0 C8.25 0 16.5 0 25 0 C25 0.66 25 1.32 25 2 C24.01257813 2.13277344 23.02515625 2.26554687 22.0078125 2.40234375 C20.72648437 2.57894531 19.44515625 2.75554687 18.125 2.9375 C16.21074219 3.19853516 16.21074219 3.19853516 14.2578125 3.46484375 C11.12440546 3.81433227 11.12440546 3.81433227 9 5 C6.6670134 5.04022391 4.33293334 5.04320247 2 5 C1.67 6.65 1.34 8.3 1 10 C0.67 10 0.34 10 0 10 C0 6.7 0 3.4 0 0 Z " fill="#05A8E7" transform="translate(135,84)"/>
<path d="M0 0 C4.95 0 9.9 0 15 0 C15 2.97 15 5.94 15 9 C9.06 9 3.12 9 -3 9 C-0.63156814 6.63156814 0.08031733 6.71728959 3.3125 6.5 C6.86694244 6.17374683 9.80128654 5.69931653 13 4 C13.33 3.34 13.66 2.68 14 2 C13.34 2 12.68 2 12 2 C11.67 2.66 11.34 3.32 11 4 C10.34 3.67 9.68 3.34 9 3 C9 2.34 9 1.68 9 1 C6.03 1 3.06 1 0 1 C0 0.67 0 0.34 0 0 Z " fill="#0E8AC1" transform="translate(152,81)"/>
<path d="M0 0 C2 3 2 3 2 6 C1.34 6 0.68 6 0 6 C-0.33 7.32 -0.66 8.64 -1 10 C-1.33 8.68 -1.66 7.36 -2 6 C-4.31 6.33 -6.62 6.66 -9 7 C-8.67 6.01 -8.34 5.02 -8 4 C-9.32 3.67 -10.64 3.34 -12 3 C-11.34 2.67 -10.68 2.34 -10 2 C-10.99 1.34 -11.98 0.68 -13 0 C-11.58456585 -0.19658808 -10.16755969 -0.38187546 -8.75 -0.5625 C-7.96109375 -0.66691406 -7.1721875 -0.77132812 -6.359375 -0.87890625 C-3.92516937 -1.00384065 -2.26822395 -0.88693373 0 0 Z " fill="#18549A" transform="translate(208,85)"/>
<path d="M0 0 C1.17353189 3.52059568 1.20146402 6.306493 1 10 C-1 12 -1 12 -4.625 12.125 C-5.73875 12.08375 -6.8525 12.0425 -8 12 C-8.33 11.01 -8.66 10.02 -9 9 C-8.505 8.54625 -8.01 8.0925 -7.5 7.625 C-5.77390663 6.12364481 -5.77390663 6.12364481 -6 4 C-2.47058824 0 -2.47058824 0 0 0 Z " fill="#090909" transform="translate(60,164)"/>
<path d="M0 0 C2.08379509 3.84700632 3.49686624 7.90054429 5 12 C4.01 11.67 3.02 11.34 2 11 C1.67 11.66 1.34 12.32 1 13 C0.34 13 -0.32 13 -1 13 C-1 14.65 -1 16.3 -1 18 C-3.35170044 15.86209051 -4.88791835 13.99406599 -6 11 C-6.125 7.75 -6.125 7.75 -6 5 C-4.02 5.66 -2.04 6.32 0 7 C0 4.69 0 2.38 0 0 Z " fill="#109CD6" transform="translate(22,138)"/>
<path d="M0 0 C3 1 3 1 5 2 C4.67 3.65 4.34 5.3 4 7 C0.37 7 -3.26 7 -7 7 C-7 6.34 -7 5.68 -7 5 C-6.34 4.67 -5.68 4.34 -5 4 C-7.64 4 -10.28 4 -13 4 C-8.8085012 -0.1914988 -5.6585213 -0.79858163 0 0 Z " fill="#64C3E5" transform="translate(77,98)"/>
<path d="M0 0 C0.66 -0.33 1.32 -0.66 2 -1 C2 0.65 2 2.3 2 4 C0.35 4.66 -1.3 5.32 -3 6 C-3 4.68 -3 3.36 -3 2 C-4.65 2.33 -6.3 2.66 -8 3 C-8 2.34 -8 1.68 -8 1 C-12.62 1 -17.24 1 -22 1 C-22 0.67 -22 0.34 -22 0 C-20.75283203 -0.19916016 -20.75283203 -0.19916016 -19.48046875 -0.40234375 C-18.39378906 -0.57894531 -17.30710938 -0.75554687 -16.1875 -0.9375 C-15.10855469 -1.11152344 -14.02960938 -1.28554687 -12.91796875 -1.46484375 C-7.13657472 -2.52515296 -5.59182468 -2.44006895 0 0 Z " fill="#1387C3" transform="translate(208,119)"/>
<path d="M0 0 C0.33 0 0.66 0 1 0 C1 4.95 1 9.9 1 15 C0.34 14.34 -0.32 13.68 -1 13 C-2.14889133 16.93905597 -2.52582695 20.93565958 -3 25 C-3.66 23.68 -4.32 22.36 -5 21 C-5.66 21 -6.32 21 -7 21 C-4.96192707 13.8821847 -2.59655258 6.93292719 0 0 Z " fill="#EDF5F4" transform="translate(133,95)"/>
<path d="M0 0 C0.66 0 1.32 0 2 0 C1.67 3.63 1.34 7.26 1 11 C1.66 11.33 2.32 11.66 3 12 C2.34 12.66 1.68 13.32 1 14 C0.01 14 -0.98 14 -2 14 C-2.33 13.34 -2.66 12.68 -3 12 C-3.99 12.66 -4.98 13.32 -6 14 C-6.66 13.34 -7.32 12.68 -8 12 C-7.236875 11.13375 -6.47375 10.2675 -5.6875 9.375 C-3.24779927 6.46399345 -1.57001723 3.47056439 0 0 Z " fill="#13A1DB" transform="translate(88,141)"/>
<path d="M0 0 C0.99 0 1.98 0 3 0 C3 0.66 3 1.32 3 2 C4.98 2 6.96 2 9 2 C6 4 6 4 3 4 C3 4.66 3 5.32 3 6 C0.36 6.66 -2.28 7.32 -5 8 C-5 6.02 -5 4.04 -5 2 C-5.66 1.67 -6.32 1.34 -7 1 C-4.69 1.33 -2.38 1.66 0 2 C0 1.34 0 0.68 0 0 Z " fill="#05B4F0" transform="translate(71,162)"/>
<path d="M0 0 C1.32 0.99 2.64 1.98 4 3 C5.32 2.34 6.64 1.68 8 1 C8.66 2.32 9.32 3.64 10 5 C8.02 6.32 6.04 7.64 4 9 C1.69 7.35 -0.62 5.7 -3 4 C-2.34 3.67 -1.68 3.34 -1 3 C-0.67 2.01 -0.34 1.02 0 0 Z " fill="#EFF5F3" transform="translate(210,81)"/>
<path d="M0 0 C1.32 1.65 2.64 3.3 4 5 C4.66 4.34 5.32 3.68 6 3 C6.3690205 12.41002278 6.3690205 12.41002278 4 17 C2.08614468 14.12921701 1.03567048 11.66588344 -0.125 8.4375 C-0.47820312 7.46683594 -0.83140625 6.49617188 -1.1953125 5.49609375 C-2 3 -2 3 -2 1 C-1.34 0.67 -0.68 0.34 0 0 Z " fill="#1A6AAD" transform="translate(107,101)"/>
<path d="M0 0 C0.99 0.103125 1.98 0.20625 3 0.3125 C5 3.3125 5 3.3125 5 6.3125 C1.37 6.3125 -2.26 6.3125 -6 6.3125 C-4.54010695 0.47292781 -4.54010695 0.47292781 0 0 Z " fill="#BCE6F0" transform="translate(74,103.6875)"/>
<path d="M0 0 C2.56616632 3.84924948 2.55097676 6.4349304 3 11 C0.69 10.67 -1.62 10.34 -4 10 C-4.33 10.66 -4.66 11.32 -5 12 C-6.46726798 8.18510326 -5.43336419 5.70988378 -4 2 C-3.34 2.33 -2.68 2.66 -2 3 C-2.33 4.32 -2.66 5.64 -3 7 C-2.34 7 -1.68 7 -1 7 C-1.020625 6.030625 -1.04125 5.06125 -1.0625 4.0625 C-1 1 -1 1 0 0 Z " fill="#1D56A0" transform="translate(108,85)"/>
<path d="M0 0 C1.60294922 0.01353516 1.60294922 0.01353516 3.23828125 0.02734375 C4.04652344 0.03894531 4.85476562 0.05054687 5.6875 0.0625 C5.3575 1.7125 5.0275 3.3625 4.6875 5.0625 C-2.7375 4.0725 -2.7375 4.0725 -10.3125 3.0625 C-10.3125 5.3725 -10.3125 7.6825 -10.3125 10.0625 C-10.6425 10.0625 -10.9725 10.0625 -11.3125 10.0625 C-11.3125 7.0925 -11.3125 4.1225 -11.3125 1.0625 C-7.47525828 0.15836327 -3.93747726 -0.04326898 0 0 Z " fill="#0A63AF" transform="translate(194.3125,86.9375)"/>
<path d="M0 0 C2.64 0 5.28 0 8 0 C8 2.31 8 4.62 8 7 C5.69 7 3.38 7 1 7 C1 8.65 1 10.3 1 12 C0.34 11.01 -0.32 10.02 -1 9 C-3.56282742 8.27034634 -3.56282742 8.27034634 -6 8 C-6.33 9.32 -6.66 10.64 -7 12 C-7 10.35 -7 8.7 -7 7 C-8.98 7 -10.96 7 -13 7 C-10.63707344 4.47411298 -9.33537489 3.11179163 -6 2 C-6 2.99 -6 3.98 -6 5 C-5.67 5.66 -5.34 6.32 -5 7 C-4.319375 6.835 -3.63875 6.67 -2.9375 6.5 C0.4164822 5.92910941 3.60389805 5.93340977 7 6 C7 4.35 7 2.7 7 1 C4.69 1 2.38 1 0 1 C0 0.67 0 0.34 0 0 Z " fill="#105996" transform="translate(19,99)"/>
<path d="M0 0 C3.37462715 0.54723683 5.08235 1.0549 8 3 C8 3.66 8 4.32 8 5 C4.0027217 8.56899848 0.48535974 9.13949058 -4.75 9.0625 C-5.54921875 9.05347656 -6.3484375 9.04445313 -7.171875 9.03515625 C-7.77515625 9.02355469 -8.3784375 9.01195313 -9 9 C-9 8.67 -9 8.34 -9 8 C-5.7 7.34 -2.4 6.68 1 6 C1.33 5.01 1.66 4.02 2 3 C0.68 2.67 -0.64 2.34 -2 2 C-1.34 2 -0.68 2 0 2 C0 1.34 0 0.68 0 0 Z " fill="#6AC4E2" transform="translate(78,118)"/>
<path d="M0 0 C0.33 0 0.66 0 1 0 C1.59860686 6.03040986 1.84422215 10.65932831 -1.875 15.6875 C-3.4921875 17.63671875 -3.4921875 17.63671875 -5 19 C-5.66 19 -6.32 19 -7 19 C-7 19.66 -7 20.32 -7 21 C-7.66 21 -8.32 21 -9 21 C-7.94652467 18.87841774 -6.878426 16.76737284 -5.78125 14.66796875 C-3.28141364 9.82834652 -1.26762225 5.30096577 0 0 Z " fill="#DCF3F5" transform="translate(99,138)"/>
<path d="M0 0 C0.33 0 0.66 0 1 0 C1.33 7.26 1.66 14.52 2 22 C3.32 22.33 4.64 22.66 6 23 C6 23.66 6 24.32 6 25 C8.64 25.66 11.28 26.32 14 27 C14 27.33 14 27.66 14 28 C6.75898264 28.61364554 6.75898264 28.61364554 3.0625 25.625 C0.31424298 22.12721834 -0.12391741 20.57029036 -0.09765625 16.2109375 C-0.09443359 15.26992187 -0.09121094 14.32890625 -0.08789062 13.359375 C-0.07951172 12.37453125 -0.07113281 11.3896875 -0.0625 10.375 C-0.05798828 9.38242188 -0.05347656 8.38984375 -0.04882812 7.3671875 C-0.03702145 4.9113984 -0.020554 2.45572896 0 0 Z " fill="#45B8DB" transform="translate(30,99)"/>
<path d="M0 0 C12.09865471 3.69775785 12.09865471 3.69775785 14.30859375 6.890625 C14.8125 8.8125 14.8125 8.8125 15 12 C12 11 12 11 10 8 C9.67 7.34 9.34 6.68 9 6 C7.02 6.33 5.04 6.66 3 7 C0 2.25 0 2.25 0 0 Z " fill="#ECF5F1" transform="translate(31,166)"/>
<path d="M0 0 C0.89203125 0.11085938 1.7840625 0.22171875 2.703125 0.3359375 C3.37859375 0.43132812 4.0540625 0.52671875 4.75 0.625 C4.75 0.955 4.75 1.285 4.75 1.625 C2.44 1.625 0.13 1.625 -2.25 1.625 C-2.58 2.615 -2.91 3.605 -3.25 4.625 C-3.91 4.295 -4.57 3.965 -5.25 3.625 C-5.58 4.615 -5.91 5.605 -6.25 6.625 C-7.87332967 8.01076923 -9.53724465 9.35141268 -11.25 10.625 C-11.25 9.305 -11.25 7.985 -11.25 6.625 C-10.59 6.625 -9.93 6.625 -9.25 6.625 C-9.25 4.975 -9.25 3.325 -9.25 1.625 C-5.9353333 -0.40407167 -3.8184021 -0.50242133 0 0 Z " fill="#40C2ED" transform="translate(72.25,101.375)"/>
<path d="M0 0 C0 0.66 0 1.32 0 2 C-1.32 2 -2.64 2 -4 2 C-3.87625 3.8871875 -3.87625 3.8871875 -3.75 5.8125 C-3.75 9.72321429 -3.75 9.72321429 -5.75 11.9375 C-10.56548316 14.21147816 -13.69606958 13.91798796 -19 13 C-19 12.67 -19 12.34 -19 12 C-17.95199219 11.96132812 -17.95199219 11.96132812 -16.8828125 11.921875 C-15.97273438 11.86515625 -15.06265625 11.8084375 -14.125 11.75 C-13.22007813 11.70359375 -12.31515625 11.6571875 -11.3828125 11.609375 C-8.86976551 11.24655226 -8.86976551 11.24655226 -7.7421875 9.15234375 C-7.13183918 7.38233362 -6.56045072 5.59893666 -6 3.8125 C-4.64635016 0.00535983 -3.97509678 0 0 0 Z " fill="#D4F1F7" transform="translate(72,170)"/>
<path d="M0 0 C0.99 0 1.98 0 3 0 C3.31365567 5.95945778 2.85002662 9.72217292 0 15 C-3 17 -3 17 -6 17 C-6 16.34 -6 15.68 -6 15 C-5.01 15 -4.02 15 -3 15 C-2.67 13.02 -2.34 11.04 -2 9 C-1.01 9 -0.02 9 1 9 C0.67 6.03 0.34 3.06 0 0 Z " fill="#E7F6F5" transform="translate(204,100)"/>
<path d="M0 0 C0.66 0.66 1.32 1.32 2 2 C2.99 2 3.98 2 5 2 C4.67 3.65 4.34 5.3 4 7 C2.58376784 7.05447047 1.16691809 7.09300508 -0.25 7.125 C-1.03890625 7.14820312 -1.8278125 7.17140625 -2.640625 7.1953125 C-5.20731941 6.9828378 -6.7916067 6.28654105 -9 5 C-8.43410156 4.80664062 -7.86820312 4.61328125 -7.28515625 4.4140625 C-6.55167969 4.15367188 -5.81820312 3.89328125 -5.0625 3.625 C-3.96615234 3.24214844 -3.96615234 3.24214844 -2.84765625 2.8515625 C-0.81317884 2.14728587 -0.81317884 2.14728587 0 0 Z " fill="#58C5F0" transform="translate(81,107)"/>
<path d="M0 0 C0.33 0 0.66 0 1 0 C1.08086147 1.79093191 1.13912702 3.58289628 1.1875 5.375 C1.22230469 6.37273437 1.25710937 7.37046875 1.29296875 8.3984375 C1.19628906 9.25695312 1.09960938 10.11546875 1 11 C0.01 11.66 -0.98 12.32 -2 13 C-2.103125 12.360625 -2.20625 11.72125 -2.3125 11.0625 C-2.539375 10.381875 -2.76625 9.70125 -3 9 C-3.99 8.67 -4.98 8.34 -6 8 C-6 14.27 -6 20.54 -6 27 C-6.33 27 -6.66 27 -7 27 C-7 20.4 -7 13.8 -7 7 C-4.69 7 -2.38 7 0 7 C0 4.69 0 2.38 0 0 Z " fill="#B9D5EA" transform="translate(27,99)"/>
<path d="M0 0 C0.33 0 0.66 0 1 0 C1 2.31 1 4.62 1 7 C2.65 7.33 4.3 7.66 6 8 C6 9.65 6 11.3 6 13 C0.56193353 13.36253776 0.56193353 13.36253776 -1.9375 11.75 C-3 10 -3 10 -2.6875 7.8125 C-2.3471875 6.9153125 -2.3471875 6.9153125 -2 6 C-1.34 6 -0.68 6 0 6 C0 4.02 0 2.04 0 0 Z " fill="#266DB2" transform="translate(20,92)"/>
<path d="M0 0 C3.63 0 7.26 0 11 0 C11.33 0.99 11.66 1.98 12 3 C9.59454362 4.20272819 8.05003047 4.10071472 5.375 4.0625 C4.14910156 4.04896484 4.14910156 4.04896484 2.8984375 4.03515625 C1.95871094 4.01775391 1.95871094 4.01775391 1 4 C0.67 2.68 0.34 1.36 0 0 Z " fill="#184FA0" transform="translate(95,82)"/>
<path d="M0 0 C1.65 0 3.3 0 5 0 C5.125 6.75 5.125 6.75 4 9 C3.01 9 2.02 9 1 9 C-1.125 2.25 -1.125 2.25 0 0 Z " fill="#164D96" transform="translate(129,81)"/>
<path d="M0 0 C0.33 0 0.66 0 1 0 C1.03738281 0.59167969 1.07476562 1.18335937 1.11328125 1.79296875 C1.61164911 7.78315503 2.63609267 11.63609267 7 16 C5.02 16.99 5.02 16.99 3 18 C3 17.34 3 16.68 3 16 C2.34 16 1.68 16 1 16 C0.67 16.66 0.34 17.32 0 18 C0 12.06 0 6.12 0 0 Z " fill="#DEF0F6" transform="translate(59,109)"/>
<path d="M0 0 C1.32 0 2.64 0 4 0 C4.268125 0.969375 4.53625 1.93875 4.8125 2.9375 C5.204375 3.948125 5.59625 4.95875 6 6 C6.99 6.33 7.98 6.66 9 7 C6.36 7 3.72 7 1 7 C0.34 5.02 -0.32 3.04 -1 1 C-0.67 0.67 -0.34 0.34 0 0 Z " fill="#2F8AC1" transform="translate(113,122)"/>
<path d="M0 0 C0.33 0.66 0.66 1.32 1 2 C1.99 2.33 2.98 2.66 4 3 C3.67 4.65 3.34 6.3 3 8 C2.34 8 1.68 8 1 8 C1 8.66 1 9.32 1 10 C0.01 9.67 -0.98 9.34 -2 9 C-1.125 1.125 -1.125 1.125 0 0 Z " fill="#05A1E1" transform="translate(24,148)"/>
<path d="M0 0 C1.32 0 2.64 0 4 0 C4 0.66 4 1.32 4 2 C3.01 2 2.02 2 1 2 C1 3.65 1 5.3 1 7 C0.34 7 -0.32 7 -1 7 C-1 6.34 -1 5.68 -1 5 C-3.31 5 -5.62 5 -8 5 C-8.33 4.01 -8.66 3.02 -9 2 C-7.02 2 -5.04 2 -3 2 C-3 2.66 -3 3.32 -3 4 C-2.34 4 -1.68 4 -1 4 C-0.67 2.68 -0.34 1.36 0 0 Z " fill="#04B3F0" transform="translate(44,163)"/>
<path d="M0 0 C2.01885681 3.89727141 3.4900576 7.88197528 5 12 C4.01 11.67 3.02 11.34 2 11 C1.67 11.66 1.34 12.32 1 13 C0.34 13 -0.32 13 -1 13 C-2.07310858 9.72814447 -1.89263102 7.57052408 -1.0625 4.25 C-0.86785156 3.45078125 -0.67320313 2.6515625 -0.47265625 1.828125 C-0.31667969 1.22484375 -0.16070313 0.6215625 0 0 Z " fill="#199CCD" transform="translate(22,138)"/>
<path d="M0 0 C2.31509559 3.47264338 2.62582455 5.88407008 3 10 C2.67 10.66 2.34 11.32 2 12 C1.34 12 0.68 12 0 12 C-0.12375 12.969375 -0.2475 13.93875 -0.375 14.9375 C-0.58125 15.948125 -0.7875 16.95875 -1 18 C-1.66 18.33 -2.32 18.66 -3 19 C-2.01 12.73 -1.02 6.46 0 0 Z " fill="#258FBD" transform="translate(91,122)"/>
<path d="M0 0 C0.33 0 0.66 0 1 0 C1 1.65 1 3.3 1 5 C1.66 5 2.32 5 3 5 C3 4.34 3 3.68 3 3 C4.32 3 5.64 3 7 3 C6.67 2.01 6.34 1.02 6 0 C6.66 0 7.32 0 8 0 C8.125 2.375 8.125 2.375 8 5 C6 7 6 7 2.875 7.125 C1.451875 7.063125 1.451875 7.063125 0 7 C-1.125 2.25 -1.125 2.25 0 0 Z " fill="#EAFAFA" transform="translate(40,112)"/>
<path d="M0 0 C0 1.65 0 3.3 0 5 C-5.94 4.01 -5.94 4.01 -12 3 C-12 2.34 -12 1.68 -12 1 C-7.915021 0.45533613 -4.1274515 0 0 0 Z " fill="#1277BF" transform="translate(164,103)"/>
<path d="M0 0 C2.125 0.375 2.125 0.375 4 1 C3.67 2.32 3.34 3.64 3 5 C2.34 5 1.68 5 1 5 C0.71125 5.61875 0.4225 6.2375 0.125 6.875 C-1 9 -1 9 -3 11 C-2.88590407 9.54077307 -2.75834456 8.08259402 -2.625 6.625 C-2.55539063 5.81289062 -2.48578125 5.00078125 -2.4140625 4.1640625 C-2 2 -2 2 0 0 Z " fill="#E9F7F5" transform="translate(63,96)"/>
<path d="M0 0 C0.33 0 0.66 0 1 0 C1.06058594 0.69867188 1.12117188 1.39734375 1.18359375 2.1171875 C1.26738281 3.02726562 1.35117187 3.93734375 1.4375 4.875 C1.55931641 6.23238281 1.55931641 6.23238281 1.68359375 7.6171875 C1.86989285 10.01110861 1.86989285 10.01110861 3 12 C2.0625 14.125 2.0625 14.125 1 16 C0.01 16 -0.98 16 -2 16 C-2 13.36 -2 10.72 -2 8 C-1.67 8 -1.34 8 -1 8 C-0.67 5.36 -0.34 2.72 0 0 Z " fill="#0B7CC3" transform="translate(16,112)"/>
<path d="M0 0 C0.66 0 1.32 0 2 0 C2 1.98 2 3.96 2 6 C2.99 6 3.98 6 5 6 C4.67 6.99 4.34 7.98 4 9 C1.9375 9.6875 1.9375 9.6875 0 10 C-1.60339848 6.88228073 -2.18974141 5.60988311 -1.125 2.1875 C-0.75375 1.465625 -0.3825 0.74375 0 0 Z " fill="#1358A2" transform="translate(127,90)"/>
<path d="M0 0 C0.33 0.66 0.66 1.32 1 2 C1.66 2.33 2.32 2.66 3 3 C2.67 5.97 2.34 8.94 2 12 C0.02 12 -1.96 12 -4 12 C-4 11.01 -4 10.02 -4 9 C-3.01 8.67 -2.02 8.34 -1 8 C-0.67 5.36 -0.34 2.72 0 0 Z " fill="#EFF6F7" transform="translate(9,87)"/>
<path d="M0 0 C0.33 0.66 0.66 1.32 1 2 C2.98 2 4.96 2 7 2 C7 3.65 7 5.3 7 7 C6.01 7 5.02 7 4 7 C4 6.34 4 5.68 4 5 C2.35 5.33 0.7 5.66 -1 6 C-0.67 4.02 -0.34 2.04 0 0 Z " fill="#0C78C3" transform="translate(207,110)"/>
<path d="M0 0 C1.4606285 2.64738916 2 3.89448334 2 7 C1.34 7 0.68 7 0 7 C-0.33 7.99 -0.66 8.98 -1 10 C-3.89932357 7.60490662 -4.50168276 5.68754757 -5 2 C-3.02 2.99 -3.02 2.99 -1 4 C-0.67 2.68 -0.34 1.36 0 0 Z " fill="#165BA9" transform="translate(18,91)"/>
<path d="M0 0 C0.33 0.66 0.66 1.32 1 2 C4.96 2 8.92 2 13 2 C9.5647952 4.29013653 8.014669 4.17842973 4 4 C3.67 5.65 3.34 7.3 3 9 C0.87491756 5.81237635 0.4979837 3.73487777 0 0 Z " fill="#E5EFEF" transform="translate(58,158)"/>
<path d="M0 0 C1.65 0 3.3 0 5 0 C5 1.32 5 2.64 5 4 C5.66 4 6.32 4 7 4 C7 4.99 7 5.98 7 7 C6.01 7.33 5.02 7.66 4 8 C2.68 5.36 1.36 2.72 0 0 Z " fill="#E7F6F6" transform="translate(24,144)"/>
<path d="M0 0 C0 0.99 0 1.98 0 3 C-0.99 3.33 -1.98 3.66 -3 4 C-3 3.34 -3 2.68 -3 2 C-7.62 2 -12.24 2 -17 2 C-17 1.67 -17 1.34 -17 1 C-15.10630916 0.63455089 -13.20991218 0.28310825 -11.3125 -0.0625 C-10.25675781 -0.25972656 -9.20101562 -0.45695312 -8.11328125 -0.66015625 C-5.08840784 -0.99034946 -2.92019489 -0.77474558 0 0 Z " fill="#1593CB" transform="translate(203,118)"/>
<path d="M0 0 C2.5 2.3125 2.5 2.3125 5 5 C5 5.99 5 6.98 5 8 C3.02 8 1.04 8 -1 8 C-0.67 5.36 -0.34 2.72 0 0 Z " fill="#1F539A" transform="translate(211,88)"/>
<path d="M0 0 C0 1.98 0 3.96 0 6 C-0.99 6.495 -0.99 6.495 -2 7 C-3.65 5.02 -5.3 3.04 -7 1 C-3.375 -1.125 -3.375 -1.125 0 0 Z " fill="#2365A8" transform="translate(207,91)"/>
<path d="M0 0 C-3.52679099 2.35119399 -5.02879485 2.21443452 -9.1875 2.125 C-10.27417969 2.10695313 -11.36085937 2.08890625 -12.48046875 2.0703125 C-13.72763672 2.03550781 -13.72763672 2.03550781 -15 2 C-11.17130752 -1.82869248 -4.96032811 -1.39509228 0 0 Z " fill="#0692D5" transform="translate(164,88)"/>
<path d="M0 0 C0.66 0 1.32 0 2 0 C2 0.66 2 1.32 2 2 C4.475 2.99 4.475 2.99 7 4 C3.86501708 5.85776765 1.62528568 6.20140476 -2 6 C-1.67 5.01 -1.34 4.02 -1 3 C-0.34 3 0.32 3 1 3 C0.67 2.01 0.34 1.02 0 0 Z " fill="#06ADEC" transform="translate(78,157)"/>
<path d="M0 0 C2.22825644 2.22825644 2.69239369 3.65761628 3.625 6.625 C3.88539062 7.44226563 4.14578125 8.25953125 4.4140625 9.1015625 C4.60742188 9.72804687 4.80078125 10.35453125 5 11 C4.01 11.495 4.01 11.495 3 12 C3 10.68 3 9.36 3 8 C1.35 8 -0.3 8 -2 8 C-1.67 7.4225 -1.34 6.845 -1 6.25 C0.27075898 3.80116138 0.27075898 3.80116138 0 0 Z " fill="#DCF4F8" transform="translate(14,144)"/>
<path d="M0 0 C1.45742463 -0.08096803 2.91612807 -0.13917774 4.375 -0.1875 C5.18710938 -0.22230469 5.99921875 -0.25710937 6.8359375 -0.29296875 C7.55007812 -0.19628906 8.26421875 -0.09960938 9 0 C9.66 0.99 10.32 1.98 11 3 C6.98195309 3.84098656 3.98196457 4.05404945 0 3 C0 2.01 0 1.02 0 0 Z " fill="#15A2D8" transform="translate(192,124)"/>
<path d="M0 0 C3.74525799 3.74525799 3.68909949 7.98270909 4 13 C3.67 12.34 3.34 11.68 3 11 C2.34 11 1.68 11 1 11 C0.855625 9.88625 0.71125 8.7725 0.5625 7.625 C0.21627965 4.17857953 0.21627965 4.17857953 -1 2 C-0.67 1.34 -0.34 0.68 0 0 Z " fill="#81CBE9" transform="translate(84,102)"/>
<path d="M0 0 C4.08072342 0.55144911 4.91330796 0.91330796 8 4 C5.03 4 2.06 4 -1 4 C-0.67 2.68 -0.34 1.36 0 0 Z " fill="#F3F9FA" transform="translate(70,105)"/>
<path d="M0 0 C1.4540625 0.0309375 1.4540625 0.0309375 2.9375 0.0625 C-1.6875 4.9375 -1.6875 4.9375 -5.0625 6.0625 C-3.98897059 0.08140756 -3.98897059 0.08140756 0 0 Z " fill="#E2F4F4" transform="translate(77.0625,153.9375)"/>
<path d="M0 0 C0.66 0.33 1.32 0.66 2 1 C2.6328125 3.50390625 2.6328125 3.50390625 3.125 6.5625 C3.29257812 7.57441406 3.46015625 8.58632812 3.6328125 9.62890625 C3.75398438 10.41136719 3.87515625 11.19382813 4 12 C3.34 11.67 2.68 11.34 2 11 C2 10.01 2 9.02 2 8 C1.01 8.33 0.02 8.66 -1 9 C-0.67 6.03 -0.34 3.06 0 0 Z " fill="#101111" transform="translate(55,151)"/>
<path d="M0 0 C0.78375 0.04125 1.5675 0.0825 2.375 0.125 C1.42382866 1.2975131 0.46382991 2.46287015 -0.5 3.625 C-1.03367187 4.2746875 -1.56734375 4.924375 -2.1171875 5.59375 C-2.61476563 6.0990625 -3.11234375 6.604375 -3.625 7.125 C-4.285 7.125 -4.945 7.125 -5.625 7.125 C-5.955 6.135 -6.285 5.145 -6.625 4.125 C-2.625 0.125 -2.625 0.125 0 0 Z " fill="#EAF2F2" transform="translate(16.625,80.875)"/>
<path d="M0 0 C4.29 1.65 8.58 3.3 13 5 C9.22941703 6.25686099 6.86146303 5.82745636 3 5 C1.0625 3.5625 1.0625 3.5625 0 2 C0 1.34 0 0.68 0 0 Z " fill="#D8F5FA" transform="translate(31,166)"/>
<path d="M0 0 C1.32 0 2.64 0 4 0 C4 1.65 4 3.3 4 5 C2.02 5 0.04 5 -2 5 C-1.34 3.35 -0.68 1.7 0 0 Z " fill="#0892D0" transform="translate(201,121)"/>
<path d="M0 0 C1.32 0.66 2.64 1.32 4 2 C3.34 3.32 2.68 4.64 2 6 C0.68 5.34 -0.64 4.68 -2 4 C-1.34 2.68 -0.68 1.36 0 0 Z " fill="#ABACAD" transform="translate(216,82)"/>
<path d="M0 0 C0.33 0 0.66 0 1 0 C1.98248524 4.0527516 2.08159574 7.83861737 2 12 C1.01 12.33 0.02 12.66 -1 13 C-0.67 8.71 -0.34 4.42 0 0 Z " fill="#DFEFF4" transform="translate(101,124)"/>
<path d="M0 0 C2 2 2 2 2.1953125 3.9453125 C2.13020833 5.96354167 2.06510417 7.98177083 2 10 C1.34 10 0.68 10 0 10 C-0.66 10.66 -1.32 11.32 -2 12 C-1.34 8.04 -0.68 4.08 0 0 Z " fill="#1381BA" transform="translate(19,124)"/>
<path d="M0 0 C0 1.32 0 2.64 0 4 C1.98 4 3.96 4 6 4 C6 4.33 6 4.66 6 5 C3.69 5 1.38 5 -1 5 C-1.33 4.34 -1.66 3.68 -2 3 C-3.98 3.99 -3.98 3.99 -6 5 C-3.74193548 0 -3.74193548 0 0 0 Z " fill="#1CB2D5" transform="translate(50,121)"/>
<path d="M0 0 C1.32 0.33 2.64 0.66 4 1 C3.67 2.98 3.34 4.96 3 7 C2.01 7.33 1.02 7.66 0 8 C0 5.36 0 2.72 0 0 Z " fill="#1C4C97" transform="translate(170,119)"/>
<path d="M0 0 C0.66 1.32 1.32 2.64 2 4 C2.66 4 3.32 4 4 4 C4 6.64 4 9.28 4 12 C1.49484216 9.49484216 0.94900914 7.38931835 0 4 C0 2.68 0 1.36 0 0 Z " fill="#0F599E" transform="translate(97,92)"/>
<path d="M0 0 C4.62 0 9.24 0 14 0 C14 0.66 14 1.32 14 2 C13.34 2 12.68 2 12 2 C11.67 2.66 11.34 3.32 11 4 C10.34 3.67 9.68 3.34 9 3 C9 2.34 9 1.68 9 1 C6.03 1 3.06 1 0 1 C0 0.67 0 0.34 0 0 Z " fill="#0691CB" transform="translate(152,81)"/>
<path d="M0 0 C0.33 0 0.66 0 1 0 C1 1.98 1 3.96 1 6 C1.66 6 2.32 6 3 6 C3 6.66 3 7.32 3 8 C3.66 8.33 4.32 8.66 5 9 C5 9.66 5 10.32 5 11 C2.525 10.01 2.525 10.01 0 9 C0 6.03 0 3.06 0 0 Z " fill="#4175AA" transform="translate(11,90)"/>
<path d="M0 0 C3.3 0.33 6.6 0.66 10 1 C10 1.33 10 1.66 10 2 C7.36 2 4.72 2 2 2 C2 3.32 2 4.64 2 6 C1.34 6 0.68 6 0 6 C0 4.02 0 2.04 0 0 Z " fill="#E0F7F4" transform="translate(28,97)"/>
<path d="M0 0 C0.78375 0.04125 1.5675 0.0825 2.375 0.125 C2.375 0.785 2.375 1.445 2.375 2.125 C0.44835866 3.73053445 -1.38133004 5.00316502 -3.625 6.125 C-4.25 4.25 -4.25 4.25 -4.625 2.125 C-2.625 0.125 -2.625 0.125 0 0 Z " fill="#DCE7EE" transform="translate(25.625,88.875)"/>
<path d="M0 0 C2.64 0.33 5.28 0.66 8 1 C7.67 1.99 7.34 2.98 7 4 C4.69 3.34 2.38 2.68 0 2 C0 1.34 0 0.68 0 0 Z " fill="#1A6AAB" transform="translate(192,88)"/>
<path d="M0 0 C2.0625 0.4375 2.0625 0.4375 4 1 C3.67 3.31 3.34 5.62 3 8 C0 6 0 6 -0.75 3.4375 C-0.8325 2.633125 -0.915 1.82875 -1 1 C-0.67 0.67 -0.34 0.34 0 0 Z " fill="#1A89C7" transform="translate(97,130)"/>
<path d="M0 0 C0.33 0.99 0.66 1.98 1 3 C3.64 3 6.28 3 9 3 C9 3.33 9 3.66 9 4 C7.39773045 4.22245393 5.79303233 4.42746669 4.1875 4.625 C3.29417969 4.74101563 2.40085937 4.85703125 1.48046875 4.9765625 C-1 5 -1 5 -4 3 C-2.68 2.01 -1.36 1.02 0 0 Z " fill="#BCEDF7" transform="translate(48,123)"/>
<path d="M0 0 C0 1.65 0 3.3 0 5 C-0.99 5.33 -1.98 5.66 -3 6 C-2.34 4.35 -1.68 2.7 -1 1 C-3.31 1 -5.62 1 -8 1 C-4.93251126 -0.86240388 -3.40254489 -1.2151946 0 0 Z " fill="#D4F7F6" transform="translate(50,161)"/>
<path d="M0 0 C0.66 0.33 1.32 0.66 2 1 C2 2.65 2 4.3 2 6 C0.02 6.99 0.02 6.99 -2 8 C-1.34 5.36 -0.68 2.72 0 0 Z " fill="#E1EFF2" transform="translate(125,117)"/>
<path d="M0 0 C0.66 0 1.32 0 2 0 C2 0.66 2 1.32 2 2 C2.99 2 3.98 2 5 2 C3.25 5.875 3.25 5.875 1 7 C0.67 4.69 0.34 2.38 0 0 Z " fill="#1F80B9" transform="translate(209,115)"/>
<path d="M0 0 C0.66 0 1.32 0 2 0 C2 1.65 2 3.3 2 5 C1.34 5 0.68 5 0 5 C-0.66 6.98 -1.32 8.96 -2 11 C-3 9 -3 9 -2.44140625 6.8359375 C-2.15136719 6.02382812 -1.86132812 5.21171875 -1.5625 4.375 C-1.27503906 3.55773437 -0.98757812 2.74046875 -0.69140625 1.8984375 C-0.46324219 1.27195312 -0.23507813 0.64546875 0 0 Z " fill="#2A568E" transform="translate(127,85)"/>
<path d="M0 0 C0.33 0.66 0.66 1.32 1 2 C1.66 2.33 2.32 2.66 3 3 C2.34 3.66 1.68 4.32 1 5 C0.83312552 7.58354218 0.83312552 7.58354218 1 10 C0.34 10 -0.32 10 -1 10 C-1.02689216 8.52093108 -1.04634621 7.04172517 -1.0625 5.5625 C-1.07410156 4.73878906 -1.08570312 3.91507812 -1.09765625 3.06640625 C-1 1 -1 1 0 0 Z " fill="#F2FAF9" transform="translate(29,80)"/>
<path d="M0 0 C2.97 0.495 2.97 0.495 6 1 C6 1.99 6 2.98 6 4 C2 4 2 4 -1 3 C-0.67 2.01 -0.34 1.02 0 0 Z " fill="#F3FAF9" transform="translate(36,172)"/>
<path d="M0 0 C0.33 0 0.66 0 1 0 C1 1.65 1 3.3 1 5 C-2.20062687 6.60031344 -4.72271806 5.03173691 -8 4 C-8 3.67 -8 3.34 -8 3 C-5.36 3 -2.72 3 0 3 C0 2.01 0 1.02 0 0 Z " fill="#E8F7F8" transform="translate(122,126)"/>
<path d="M0 0 C1.65 0 3.3 0 5 0 C5 1.32 5 2.64 5 4 C3.35 4 1.7 4 0 4 C0 2.68 0 1.36 0 0 Z " fill="#FDFEF9" transform="translate(186,114)"/>
<path d="M0 0 C1.32 0 2.64 0 4 0 C4.93423645 3.01031744 5.04449911 3.86650268 4 7 C3.34 7 2.68 7 2 7 C1.34 4.69 0.68 2.38 0 0 Z " fill="#DFEEF5" transform="translate(115,104)"/>
<path d="M0 0 C0.99 0 1.98 0 3 0 C2.67 1.32 2.34 2.64 2 4 C1.67 4 1.34 4 1 4 C0.67 5.98 0.34 7.96 0 10 C-0.33 10 -0.66 10 -1 10 C-1.02689216 8.52093108 -1.04634621 7.04172517 -1.0625 5.5625 C-1.07410156 4.73878906 -1.08570312 3.91507812 -1.09765625 3.06640625 C-1 1 -1 1 0 0 Z " fill="#2C5595" transform="translate(92,82)"/>
<path d="M0 0 C-1.125 1.5625 -1.125 1.5625 -3 3 C-6.1875 2.6875 -6.1875 2.6875 -9 2 C-4 -1.33333333 -4 -1.33333333 0 0 Z " fill="#DBF3F9" transform="translate(81,168)"/>
<path d="M0 0 C2.475 0.495 2.475 0.495 5 1 C5 1.99 5 2.98 5 4 C3.68 4 2.36 4 1 4 C0.67 2.68 0.34 1.36 0 0 Z " fill="#F2F6F4" transform="translate(80,144)"/>
<path d="M0 0 C-0.75 4.75 -0.75 4.75 -3 7 C-3.66 5.02 -4.32 3.04 -5 1 C-3 0 -3 0 0 0 Z " fill="#149ACC" transform="translate(97,145)"/>
<path d="M0 0 C0.66 0 1.32 0 2 0 C1.25 4.75 1.25 4.75 -1 7 C-1.625 5.1875 -1.625 5.1875 -2 3 C-1.34 2.01 -0.68 1.02 0 0 Z " fill="#1D9CCD" transform="translate(88,141)"/>
<path d="M0 0 C0 1.32 0 2.64 0 4 C-4.875 2.25 -4.875 2.25 -6 0 C-2.25 -1.125 -2.25 -1.125 0 0 Z " fill="#EAF7F6" transform="translate(88,118)"/>
<path d="M0 0 C1.32 0.33 2.64 0.66 4 1 C4 1.99 4 2.98 4 4 C3.34 4 2.68 4 2 4 C1.67 4.99 1.34 5.98 1 7 C0.67 7 0.34 7 0 7 C0 4.69 0 2.38 0 0 Z " fill="#306DA7" transform="translate(5,99)"/>
<path d="M0 0 C1.9451 2.91765 2.45276317 4.62537285 3 8 C2.01 8.495 2.01 8.495 1 9 C-1.09230769 4.56923077 -1.09230769 4.56923077 -0.625 1.6875 C-0.41875 1.130625 -0.2125 0.57375 0 0 Z " fill="#2C5C97" transform="translate(108,85)"/>
</svg>
