<?xml version="1.0" encoding="UTF-8"?>
<svg version="1.1" xmlns="http://www.w3.org/2000/svg" width="361" height="140">
<path d="M0 0 C9.02138419 5.22161639 15.23944022 11.96480074 18.25 22 C18.60617784 25.56177839 18.67627375 28.9157671 18.5 32.5 C16.5 34.5 16.5 34.5 13.79443359 34.72705078 C12.67375488 34.71657715 11.55307617 34.70610352 10.3984375 34.6953125 C9.18671875 34.68886719 7.975 34.68242188 6.7265625 34.67578125 C4.82003906 34.65064453 4.82003906 34.65064453 2.875 34.625 C1.59625 34.61597656 0.3175 34.60695312 -1 34.59765625 C-4.16685167 34.57402303 -7.33333424 34.54107629 -10.5 34.5 C-10.5 31.86 -10.5 29.22 -10.5 26.5 C-3.57 26.5 3.36 26.5 10.5 26.5 C7.57156547 17.71469642 5.43578511 12.29117012 -2.6875 8.125 C-9.00341607 5.25979153 -15.16515422 4.22586003 -21.9453125 6.21875 C-29.39751203 9.35119997 -34.30818764 13.19370653 -37.73828125 20.6328125 C-40.64376789 27.75497974 -40.11391544 33.63229341 -37.4375 40.6875 C-34.76381663 46.67655074 -31.37070845 50.56464578 -25.5 53.5 C-25.5 49.54 -25.5 45.58 -25.5 41.5 C-22.86 41.5 -20.22 41.5 -17.5 41.5 C-17.5 46.45 -17.5 51.4 -17.5 56.5 C-9.98023604 56.13614045 -2.31228518 54.45926485 3.12109375 48.81640625 C3.57613281 48.38199219 4.03117187 47.94757813 4.5 47.5 C7.1875 47.8125 7.1875 47.8125 9.5 48.5 C10.3125 50.1875 10.3125 50.1875 10.5 52.5 C5.84288582 58.32139272 -0.4083611 61.49358509 -7.5 63.5 C-18.584821 64.50062276 -27.8632638 63.38060889 -36.6484375 56.29296875 C-44.10666491 49.07076119 -47.5653707 40.30205793 -47.9375 30.0625 C-47.63132775 19.93526405 -44.12953171 13.02255789 -37.09765625 5.7734375 C-26.49362462 -3.50708342 -12.91519529 -5.93577157 0 0 Z " fill="#363636" transform="translate(79.5,40.5)"/>
<path d="M0 0 C2.75 2.1875 2.75 2.1875 4.75 5.1875 C4.75 7.4975 4.75 9.8075 4.75 12.1875 C-0.86 12.1875 -6.47 12.1875 -12.25 12.1875 C-11.92 13.1775 -11.59 14.1675 -11.25 15.1875 C-8.5040274 16.5604863 -6.2910953 16.31162634 -3.25 16.1875 C-2.26 15.8575 -1.27 15.5275 -0.25 15.1875 C1.9375 16.625 1.9375 16.625 3.75 18.1875 C-0.48333542 21.66100598 -3.54571907 22.89072855 -9.0625 22.6484375 C-12.86558944 21.84707223 -14.62327138 20.01123327 -17.25 17.1875 C-18.49300889 13.45847332 -18.77712352 10.06039363 -18.25 6.1875 C-16.51102632 2.70955265 -15.24738866 0.76493554 -11.875 -1.1875 C-7.09396484 -2.32584171 -4.3781176 -2.44164251 0 0 Z " fill="#C61131" transform="translate(313.25,54.8125)"/>
<path d="M0 0 C2.6875 2.1875 2.6875 2.1875 4.6875 5.1875 C4.6875 7.4975 4.6875 9.8075 4.6875 12.1875 C-3.7275 12.6825 -3.7275 12.6825 -12.3125 13.1875 C-11.3225 14.6725 -11.3225 14.6725 -10.3125 16.1875 C-6.59609861 16.45778374 -3.855299 16.368433 -0.3125 15.1875 C1.875 16.625 1.875 16.625 3.6875 18.1875 C-0.54583542 21.66100598 -3.60821907 22.89072855 -9.125 22.6484375 C-12.92808944 21.84707223 -14.68577138 20.01123327 -17.3125 17.1875 C-18.55467258 13.46098227 -18.8466253 10.05807926 -18.3125 6.1875 C-16.68859951 3.05569191 -15.30983974 0.94410256 -12.5 -1.1875 C-7.71191029 -2.55552563 -4.38237247 -2.39790192 0 0 Z " fill="#3A3A3A" transform="translate(187.3125,54.8125)"/>
<path d="M0 0 C5.28 0 10.56 0 16 0 C16 1.65 16 3.3 16 5 C12.7 5 9.4 5 6 5 C6 6.98 6 8.96 6 11 C9.63 11 13.26 11 17 11 C17 12.98 17 14.96 17 17 C13.37 17 9.74 17 6 17 C6 19.64 6 22.28 6 25 C9.63 25 13.26 25 17 25 C17 26.98 17 28.96 17 31 C11.39 31 5.78 31 0 31 C0 20.77 0 10.54 0 0 Z " fill="#393939" transform="translate(117,46)"/>
<path d="M0 0 C1.98 0 3.96 0 6 0 C6.06058594 1.05960938 6.12117187 2.11921875 6.18359375 3.2109375 C6.26800127 4.59897221 6.35264917 5.98699232 6.4375 7.375 C6.47681641 8.07367188 6.51613281 8.77234375 6.55664062 9.4921875 C6.74280134 13.37360492 6.74280134 13.37360492 8 17 C11.29075996 16.62095792 11.29075996 16.62095792 14 15 C14.23653523 12.47403741 14.42173692 9.96892793 14.5625 7.4375 C14.60568359 6.72658203 14.64886719 6.01566406 14.69335938 5.28320312 C14.79971777 3.52238088 14.90038846 1.7612168 15 0 C16.65 0 18.3 0 20 0 C20.10806144 2.91765891 20.18732877 5.83131125 20.25 8.75 C20.30027344 9.9875 20.30027344 9.9875 20.3515625 11.25 C20.45075974 17.40022878 20.45075974 17.40022878 18.109375 20.515625 C14.72126066 22.89985361 12.2337885 23.39360262 8.0390625 23.35546875 C4.58655959 22.75359564 3.05809848 20.68176469 1 18 C-0.2062252 14.38132441 -0.10816918 11.07493749 -0.0625 7.3125 C-0.05798828 6.61060547 -0.05347656 5.90871094 -0.04882812 5.18554688 C-0.03706927 3.45699462 -0.01913454 1.72848635 0 0 Z " fill="#C50C29" transform="translate(218,54)"/>
<path d="M0 0 C1.65 0 3.3 0 5 0 C5.04898437 1.05960938 5.09796875 2.11921875 5.1484375 3.2109375 C5.22346709 4.59898497 5.29901485 5.98700451 5.375 7.375 C5.4059375 8.07367188 5.436875 8.77234375 5.46875 9.4921875 C5.59499498 13.70185827 5.59499498 13.70185827 8 17 C9.32 17 10.64 17 12 17 C13.52106634 13.95786733 13.37429338 10.71952428 13.5625 7.375 C13.60568359 6.66859375 13.64886719 5.9621875 13.69335938 5.234375 C13.79944751 3.48981463 13.90022889 1.74493303 14 0 C15.65 0 17.3 0 19 0 C19.08103404 2.91722548 19.14051081 5.83219516 19.1875 8.75 C19.21263672 9.575 19.23777344 10.4 19.26367188 11.25 C19.33756769 17.35872096 19.33756769 17.35872096 17.67578125 20.515625 C14.58612947 23.25237949 11.10966284 23.2545997 7.1328125 23.62109375 C4.29513205 22.79473625 2.7709651 21.18785817 0.99023438 18.87817383 C-0.8359497 15.41445734 -0.52301297 11.94662006 -0.3125 8.125 C-0.28994141 7.34125 -0.26738281 6.5575 -0.24414062 5.75 C-0.18568018 3.8324974 -0.09601283 1.9159894 0 0 Z " fill="#C40422" transform="translate(257,54)"/>
<path d="M0 0 C4.95 0 9.9 0 15 0 C15 1.65 15 3.3 15 5 C11.7 5 8.4 5 5 5 C5 6.98 5 8.96 5 11 C8.3 11 11.6 11 15 11 C15 12.65 15 14.3 15 16 C11.7 16 8.4 16 5 16 C5 20.62 5 25.24 5 30 C3.35 30 1.7 30 0 30 C0 20.1 0 10.2 0 0 Z " fill="#C6001F" transform="translate(199,46)"/>
<path d="M0 0 C1.5 2.0625 1.5 2.0625 2 4 C-0.35438733 5.42944945 -1.48032433 6.08661261 -4.25 5.625 C-4.8275 5.41875 -5.405 5.2125 -6 5 C-6 5.66 -6 6.32 -6 7 C-4.22925853 8.14356764 -4.22925853 8.14356764 -2.0625 9.25 C0.97703514 11.08886468 1.84458078 11.64475606 3.3125 15 C3 18 3 18 1 20.875 C-2.70658394 23.50049695 -4.54469588 23.64804424 -9 23 C-11.4375 21.5 -11.4375 21.5 -13 20 C-12.34 18.68 -11.68 17.36 -11 16 C-7.04 16.99 -7.04 16.99 -3 18 C-4.50549556 13.78461243 -7.29317565 12.28718949 -11 10 C-12 9 -12 9 -12.3125 5.625 C-12 2 -12 2 -10.5 0 C-6.58631389 -1.56547444 -4.10072439 -0.99211074 0 0 Z " fill="#373737" transform="translate(150,54)"/>
<path d="M0 0 C1.98 0 3.96 0 6 0 C6 2.97 6 5.94 6 9 C6.99 9 7.98 9 9 9 C9 10.65 9 12.3 9 14 C8.01 14 7.02 14 6 14 C6 19.94 6 25.88 6 32 C4.02 32 2.04 32 0 32 C0 26.06 0 20.12 0 14 C-0.99 14 -1.98 14 -3 14 C-3 12.35 -3 10.7 -3 9 C-2.01 9 -1.02 9 0 9 C0 6.03 0 3.06 0 0 Z " fill="#424242" transform="translate(158,45)"/>
<path d="M0 0 C1.67542976 0.28604898 3.34385343 0.61781233 5 1 C5 2.65 5 4.3 5 6 C7.97 6.495 7.97 6.495 11 7 C11.38218767 8.65614657 11.71395102 10.32457024 12 12 C11 13 11 13 7.9375 13.0625 C6.968125 13.041875 5.99875 13.02125 5 13 C5 14.98 5 16.96 5 19 C2.625 19.625 2.625 19.625 0 20 C-2 18 -2 18 -2.125 15.375 C-2.08375 14.59125 -2.0425 13.8075 -2 13 C-3.65 13 -5.3 13 -7 13 C-7.38218767 11.34385343 -7.71395102 9.67542976 -8 8 C-7 7 -7 7 -3.9375 6.9375 C-2.4834375 6.9684375 -2.4834375 6.9684375 -1 7 C-1.020625 6.030625 -1.04125 5.06125 -1.0625 4.0625 C-1 1 -1 1 0 0 Z " fill="#D53C60" transform="translate(56,61)"/>
<path d="M0 0 C1.65 0 3.3 0 5 0 C5 2.64 5 5.28 5 8 C6.32 8 7.64 8 9 8 C9 9.65 9 11.3 9 13 C7.68 13 6.36 13 5 13 C5 18.61 5 24.22 5 30 C3.35 30 1.7 30 0 30 C0 24.39 0 18.78 0 13 C-0.99 13 -1.98 13 -3 13 C-3 11.35 -3 9.7 -3 8 C-2.01 8 -1.02 8 0 8 C0 5.36 0 2.72 0 0 Z " fill="#C60422" transform="translate(245,46)"/>
<path d="M0 0 C-0.25 2.375 -0.25 2.375 -1 5 C-2.98 5.99 -2.98 5.99 -5 7 C-5.33 12.61 -5.66 18.22 -6 24 C-7.98 24 -9.96 24 -12 24 C-12 16.41 -12 8.82 -12 1 C-10.02 1 -8.04 1 -6 1 C-4 0 -4 0 0 0 Z " fill="#C81332" transform="translate(293,53)"/>
<path d="M0 0 C0.77915771 0.00410889 1.55831543 0.00821777 2.36108398 0.01245117 C3.20735352 0.01438477 4.05362305 0.01631836 4.92553711 0.01831055 C5.81047852 0.03055664 6.69541992 0.04280273 7.60717773 0.05541992 C8.49598633 0.05606445 9.38479492 0.05670898 10.30053711 0.05737305 C16.90446676 0.10270895 16.90446676 0.10270895 18.04467773 1.24291992 C18.08531606 2.90909107 18.08739874 4.57680087 18.04467773 6.24291992 C15.23564153 7.64743802 12.86353265 7.37501246 9.73217773 7.36791992 C8.60166992 7.37049805 7.47116211 7.37307617 6.30639648 7.37573242 C3.04467773 7.24291992 3.04467773 7.24291992 0.25170898 6.67260742 C-1.98594971 6.00410928 -1.98594971 6.00410928 -3.95532227 7.24291992 C-4.08032227 4.86791992 -4.08032227 4.86791992 -3.95532227 2.24291992 C-1.95532227 0.24291992 -1.95532227 0.24291992 0 0 Z " fill="#353535" transform="translate(57.955322265625,52.757080078125)"/>
<path d="M0 0 C0.33 0.66 0.66 1.32 1 2 C1.66 2 2.32 2 3 2 C3 1.34 3 0.68 3 0 C3.66 0.33 4.32 0.66 5 1 C4.67 3.64 4.34 6.28 4 9 C3.67 9 3.34 9 3 9 C3 7.35 3 5.7 3 4 C2.34 4 1.68 4 1 4 C1 5.65 1 7.3 1 9 C-9.55808656 10.33257403 -9.55808656 10.33257403 -14 9 C-14.33 7.35 -14.66 5.7 -15 4 C-12.09399739 2.74335022 -10.20395416 2 -7 2 C-7 3.98 -7 5.96 -7 8 C-6.34 8 -5.68 8 -5 8 C-4.67 7.34 -4.34 6.68 -4 6 C-4.66 6 -5.32 6 -6 6 C-5.67 4.68 -5.34 3.36 -5 2 C-3.35 2 -1.7 2 0 2 C0 1.34 0 0.68 0 0 Z " fill="#9D9D9D" transform="translate(248,84)"/>
<path d="M0 0 C1.67542976 0.28604898 3.34385343 0.61781233 5 1 C5 2.65 5 4.3 5 6 C7.97 6.495 7.97 6.495 11 7 C11.38218767 8.65614657 11.71395102 10.32457024 12 12 C11 13 11 13 8.875 13.4375 C4.51227235 12.77360666 1.73319109 10.41071451 -1 7 C-1.5 3.6875 -1.5 3.6875 -1 1 C-0.67 0.67 -0.34 0.34 0 0 Z " fill="#B6011F" transform="translate(56,61)"/>
<path d="M0 0 C4.13998349 -0.32470459 6.33999001 -0.4304413 9.875 1.875 C12 4 12 4 13 6 C13 7.98 13 9.96 13 12 C7.39 12 1.78 12 -4 12 C-4.33 11.01 -4.66 10.02 -5 9 C-0.71 9 3.58 9 8 9 C7.34 6.69 6.68 4.38 6 2 C3.03 1.505 3.03 1.505 0 1 C0 0.67 0 0.34 0 0 Z " fill="#C70323" transform="translate(305,54)"/>
<path d="M0 0 C1.32 0 2.64 0 4 0 C3.34 0.66 2.68 1.32 2 2 C2.66 3.32 3.32 4.64 4 6 C-0.48463846 6.94413441 -3.51536154 6.94413441 -8 6 C-8.6875 4.1875 -8.6875 4.1875 -9 2 C-6.66193658 -1.98846114 -4.05585271 -0.91049755 0 0 Z " fill="#C2C2C2" transform="translate(315,87)"/>
<path d="M0 0 C0.66 0 1.32 0 2 0 C2.33 1.32 2.66 2.64 3 4 C3.598125 3.649375 4.19625 3.29875 4.8125 2.9375 C7 2 7 2 10 3 C10 4.98 10 6.96 10 9 C6.46315341 9.80842208 3.72159473 10 0 10 C0 6.7 0 3.4 0 0 Z " fill="#959595" transform="translate(183,84)"/>
<path d="M0 0 C3 0 6 0 9 0 C9 3.3 9 6.6 9 10 C8.34 10 7.68 10 7 10 C6.67 8.35 6.34 6.7 6 5 C4.68 5 3.36 5 2 5 C2 6.65 2 8.3 2 10 C1.34 10 0.68 10 0 10 C0 6.7 0 3.4 0 0 Z " fill="#939393" transform="translate(223,84)"/>
<path d="M0 0 C0 2.31 0 4.62 0 7 C-3.20395416 7 -5.09399739 6.25664978 -8 5 C-7.625 2.5625 -7.625 2.5625 -7 0 C-4.3333581 -1.33332095 -2.83319697 -0.67102033 0 0 Z " fill="#8B8B8B" transform="translate(291,87)"/>
<path d="M0 0 C0 1.98 0 3.96 0 6 C-2.875 6.625 -2.875 6.625 -6 7 C-6.66 6.34 -7.32 5.68 -8 5 C-7.75 2.4375 -7.75 2.4375 -7 0 C-4.3333581 -1.33332095 -2.83319697 -0.67102033 0 0 Z " fill="#B3B3B3" transform="translate(133,87)"/>
<path d="M0 0 C1.32 0 2.64 0 4 0 C4 2.62113708 3.68707555 4.50935112 3 7 C1.35 6.67 -0.3 6.34 -2 6 C-2 4.35 -2 2.7 -2 1 C-5.11332248 1.66868314 -5.11332248 1.66868314 -6.1875 4.0625 C-6.455625 4.701875 -6.72375 5.34125 -7 6 C-7 4.02 -7 2.04 -7 0 C-4.31031097 -1.34484451 -2.8977573 -0.62094799 0 0 Z " fill="#989898" transform="translate(169,87)"/>
<path d="M0 0 C0.625 2.375 0.625 2.375 1 5 C0.34 5.66 -0.32 6.32 -1 7 C-1.99 7 -2.98 7 -4 7 C-4.66 7.66 -5.32 8.32 -6 9 C-6 6.03 -6 3.06 -6 0 C-3.50907189 -1.24546405 -2.58919267 -0.7767578 0 0 Z " fill="#787878" transform="translate(181,87)"/>
<path d="M0 0 C1.67542976 0.28604898 3.34385343 0.61781233 5 1 C5 2.98 5 4.96 5 7 C2.625 7.625 2.625 7.625 0 8 C-0.66 7.34 -1.32 6.68 -2 6 C-1.44444444 1.44444444 -1.44444444 1.44444444 0 0 Z " fill="#767676" transform="translate(155,86)"/>
<path d="M0 0 C3.69230769 0.69230769 3.69230769 0.69230769 5 2 C5.04063832 3.66617115 5.042721 5.33388095 5 7 C2.625 7.625 2.625 7.625 0 8 C-0.66 7.34 -1.32 6.68 -2 6 C-1.44444444 1.44444444 -1.44444444 1.44444444 0 0 Z " fill="#8F8F8F" transform="translate(294,86)"/>
<path d="M0 0 C2.5 0.125 2.5 0.125 3.5 1.125 C3.625 3.625 3.625 3.625 3.5 6.125 C2.5 7.125 2.5 7.125 0 7.25 C-2.5 7.125 -2.5 7.125 -3.5 6.125 C-3.625 3.625 -3.625 3.625 -3.5 1.125 C-2.5 0.125 -2.5 0.125 0 0 Z " fill="#909090" transform="translate(318.5,45.875)"/>
<path d="M0 0 C2 2 2 2 2.125 4.625 C2.08375 5.40875 2.0425 6.1925 2 7 C0.34385343 7.38218767 -1.32457024 7.71395102 -3 8 C-4 7 -4 7 -4.0625 3.9375 C-4.041875 2.968125 -4.02125 1.99875 -4 1 C-2.125 0.375 -2.125 0.375 0 0 Z " fill="#C40C31" transform="translate(59,73)"/>
<path d="M0 0 C0.66 1.32 1.32 2.64 2 4 C-1.63 4 -5.26 4 -9 4 C-8.67 3.01 -8.34 2.02 -8 1 C-5.29120665 -0.35439668 -2.99066732 -0.06501451 0 0 Z " fill="#F8EFF1" transform="translate(310,58)"/>
<path d="M0 0 C0.33 0.99 0.66 1.98 1 3 C-2.63 3 -6.26 3 -10 3 C-9.67 2.01 -9.34 1.02 -9 0 C-5.93109813 -1.53445094 -3.29905734 -0.54984289 0 0 Z " fill="#F3F3F3" transform="translate(185,59)"/>
<path d="M0 0 C0.33 1.32 0.66 2.64 1 4 C2.32 4 3.64 4 5 4 C5 2.68 5 1.36 5 0 C5.66 0 6.32 0 7 0 C7 3.3 7 6.6 7 10 C6.34 10 5.68 10 5 10 C5 8.35 5 6.7 5 5 C3.68 5 2.36 5 1 5 C0.67 6.32 0.34 7.64 0 9 C0 6.03 0 3.06 0 0 Z " fill="#7B7B7B" transform="translate(117,84)"/>
<path d="M0 0 C0.598125 0.226875 1.19625 0.45375 1.8125 0.6875 C1.8125 1.6775 1.8125 2.6675 1.8125 3.6875 C0.1625 3.6875 -1.4875 3.6875 -3.1875 3.6875 C-2.8575 4.3475 -2.5275 5.0075 -2.1875 5.6875 C-0.8675 5.3575 0.4525 5.0275 1.8125 4.6875 C1.4825 5.6775 1.1525 6.6675 0.8125 7.6875 C-0.8375 7.3575 -2.4875 7.0275 -4.1875 6.6875 C-4.875 4.875 -4.875 4.875 -5.1875 2.6875 C-3.58493056 0.24147296 -2.95482043 -0.4221172 0 0 Z " fill="#929292" transform="translate(311.1875,86.3125)"/>
<path d="M0 0 C1.2065625 0.0309375 1.2065625 0.0309375 2.4375 0.0625 C3.0975 1.3825 3.7575 2.7025 4.4375 4.0625 C3.4475 3.7325 2.4575 3.4025 1.4375 3.0625 C1.1075 3.7225 0.7775 4.3825 0.4375 5.0625 C1.0975 5.3925 1.7575 5.7225 2.4375 6.0625 C0.7875 6.0625 -0.8625 6.0625 -2.5625 6.0625 C-2.94468767 4.40635343 -3.27645102 2.73792976 -3.5625 1.0625 C-2.5625 0.0625 -2.5625 0.0625 0 0 Z " fill="#CA1139" transform="translate(51.5625,67.9375)"/>
<path d="M0 0 C1.67542976 0.28604898 3.34385343 0.61781233 5 1 C4.67 2.32 4.34 3.64 4 5 C3.34 5 2.68 5 2 5 C1.67 5.66 1.34 6.32 1 7 C0.34 7 -0.32 7 -1 7 C-1.04254356 5.00045254 -1.04080783 2.99958364 -1 1 C-0.67 0.67 -0.34 0.34 0 0 Z " fill="#BE0424" transform="translate(56,61)"/>
<path d="M0 0 C2.97 0.495 2.97 0.495 6 1 C6.33 2.65 6.66 4.3 7 6 C6.01 6.495 6.01 6.495 5 7 C4.01 6.34 3.02 5.68 2 5 C2.33 3.68 2.66 2.36 3 1 C2.01 0.67 1.02 0.34 0 0 Z " fill="#C52542" transform="translate(61,67)"/>
<path d="M0 0 C2.475 0.99 2.475 0.99 5 2 C5 2.66 5 3.32 5 4 C4.01 4.33 3.02 4.66 2 5 C2 6.65 2 8.3 2 10 C1.34 10 0.68 10 0 10 C0 6.7 0 3.4 0 0 Z " fill="#C4C4C4" transform="translate(223,84)"/>
<path d="M0 0 C0 4.95 0 9.9 0 15 C-0.33 15 -0.66 15 -1 15 C-1.03867187 13.86111328 -1.03867187 13.86111328 -1.078125 12.69921875 C-1.13484375 11.70535156 -1.1915625 10.71148437 -1.25 9.6875 C-1.29640625 8.70136719 -1.3428125 7.71523437 -1.390625 6.69921875 C-1.75970238 3.86059908 -1.75970238 3.86059908 -4.046875 2.14453125 C-4.69140625 1.76683594 -5.3359375 1.38914062 -6 1 C-1.125 0 -1.125 0 0 0 Z " fill="#686868" transform="translate(62,82)"/>
<path d="M0 0 C1.98 0 3.96 0 6 0 C6 0.99 6 1.98 6 3 C4.35 3.33 2.7 3.66 1 4 C0.67 2.68 0.34 1.36 0 0 Z " fill="#C1C1C1" transform="translate(293,90)"/>
<path d="M0 0 C0.33 0.66 0.66 1.32 1 2 C-0.093125 2.309375 -1.18625 2.61875 -2.3125 2.9375 C-4.55407994 3.58337897 -6.7869351 4.2623117 -9 5 C-6.81610567 0.16423399 -5.20641855 -0.13701101 0 0 Z " fill="#454545" transform="translate(147,53)"/>
<path d="M0 0 C0.33 0.66 0.66 1.32 1 2 C1.66 2 2.32 2 3 2 C2.67 4.64 2.34 7.28 2 10 C1.34 10 0.68 10 0 10 C0 6.7 0 3.4 0 0 Z " fill="#9D9D9D" transform="translate(203,84)"/>
<path d="M0 0 C1.32 0 2.64 0 4 0 C3.67 1.65 3.34 3.3 3 5 C1.68 4.34 0.36 3.68 -1 3 C-0.67 2.01 -0.34 1.02 0 0 Z " fill="#F5F5F5" transform="translate(235,88)"/>
<path d="M0 0 C2.475 0.495 2.475 0.495 5 1 C4.34 2.32 3.68 3.64 3 5 C2.01 4.67 1.02 4.34 0 4 C0 2.68 0 1.36 0 0 Z " fill="#F6F6F6" transform="translate(176,88)"/>
<path d="M0 0 C1.32 0 2.64 0 4 0 C4 1.32 4 2.64 4 4 C3.01 4.33 2.02 4.66 1 5 C0.34 4.67 -0.32 4.34 -1 4 C-0.67 2.68 -0.34 1.36 0 0 Z " fill="#F5F5F5" transform="translate(155,88)"/>
<path d="M0 0 C2.475 0.495 2.475 0.495 5 1 C4.34 2.32 3.68 3.64 3 5 C2.01 4.67 1.02 4.34 0 4 C0 2.68 0 1.36 0 0 Z " fill="#F9F9F9" transform="translate(187,88)"/>
<path d="M0 0 C0.99 0 1.98 0 3 0 C3 1.65 3 3.3 3 5 C1.35 5 -0.3 5 -2 5 C-2.33 4.01 -2.66 3.02 -3 2 C-2.01 2 -1.02 2 0 2 C0 1.34 0 0.68 0 0 Z " fill="#CDB2BA" transform="translate(52,63)"/>
<path d="M0 0 C1.32 0 2.64 0 4 0 C3.67 1.65 3.34 3.3 3 5 C1.68 5 0.36 5 -1 5 C-0.67 3.35 -0.34 1.7 0 0 Z " fill="#CB1735" transform="translate(289,53)"/>
<path d="M0 0 C1.32 0 2.64 0 4 0 C4 1.32 4 2.64 4 4 C2.35 3.67 0.7 3.34 -1 3 C-0.67 2.01 -0.34 1.02 0 0 Z " fill="#F9F9F9" transform="translate(285,88)"/>
</svg>
